<svg viewBox="0 0 148 148" fill="none" xmlns="http://www.w3.org/2000/svg">
<path d="M74.2745 18.626L91.197 53.6342C93.9619 59.354 90.0903 66.0606 83.7545 66.5268L42.7406 69.5447C35.3662 70.0873 30.5202 61.9986 34.4775 55.7523L58.5689 17.7262C62.346 11.7644 71.203 12.2718 74.2745 18.626Z"   strokeWidth="2"/>
<path d="M67.1648 107.271L88.1197 96.3073C94.4635 92.9883 94.58 83.95 88.324 80.4685L69.3852 69.929C63.7074 66.7693 56.6547 70.4837 56.0481 76.9531L54.0319 98.4559C53.3656 105.562 60.8406 110.579 67.1648 107.271Z"   strokeWidth="2"/>
<path d="M52.5971 92.1507L42.9777 97.764C41.0275 98.902 38.5666 97.559 38.4685 95.3032L37.9015 82.2596C37.7923 79.748 40.6355 78.2241 42.6666 79.7056L52.853 87.1358C54.6008 88.4107 54.4656 91.0603 52.5971 92.1507Z"   strokeWidth="2"/>
<path d="M92.4123 87.4248L106.632 97.6242C108.287 98.8108 110.617 98.04 111.238 96.1011L115.951 81.3772C116.664 79.1513 114.67 77.0016 112.397 77.5448L93.4636 82.0692C90.9633 82.6667 90.3234 85.9265 92.4123 87.4248Z"   strokeWidth="2"/>
<path d="M85.5124 130.9L103.368 119.121C105.249 117.88 105.142 115.087 103.172 113.994L81.3683 101.892C79.1739 100.674 76.5432 102.528 76.9525 105.004L80.9006 128.886C81.2549 131.029 83.6991 132.097 85.5124 130.9Z"   strokeWidth="2"/>
<path d="M58.4963 109.659L46.883 118.063C45.3884 119.144 45.2148 121.306 46.5177 122.612L58.9937 135.12C60.9249 137.056 64.2278 135.61 64.1151 132.877L63.2525 111.966C63.1539 109.576 60.4344 108.257 58.4963 109.659Z"   strokeWidth="2"/>
<path d="M53.8618 69.3075C56.7617 69.3075 59.6303 69.7089 62.5246 69.7089C63.239 69.7089 64.0018 69.6674 64.7061 69.5416C65.1123 69.4691 65.5587 69.4325 65.9697 69.3893C66.6197 69.3208 67.3571 69.3987 67.9914 69.2257C68.5399 69.0762 69.1668 69.0114 69.7381 68.9767C70.5564 68.9272 71.3711 68.728 72.1909 68.6534C73.1045 68.5704 74.0142 68.4378 74.9299 68.3747C75.4737 68.3372 76.1354 68.2541 76.6469 68.07C77.0468 67.926 77.5066 67.9245 77.9216 67.8507C78.5641 67.7365 79.2054 67.6343 79.8429 67.4976C80.361 67.3866 80.8868 67.3041 81.4113 67.2301C81.9294 67.1569 82.5776 67.1815 83.0725 67.0034C83.9733 66.6791 84.9761 66.5293 85.9044 66.2972"  strokeLinecap="round"/>
<path d="M48.7108 69.3744C50.4378 69.3744 52.2048 69.4656 53.9249 69.642C54.6642 69.7178 55.3637 69.8427 56.1064 69.8427C58.4466 69.8427 60.7789 70.0433 63.1155 70.0433C63.9097 70.0433 64.7049 70.0621 65.4977 70.0099C66.0561 69.9732 66.8366 70.0304 67.3745 69.8575C68.0119 69.6527 68.8204 69.731 69.4817 69.6085C70.2947 69.458 71.1612 69.3622 71.9828 69.2926C73.2941 69.1817 74.6025 68.88 75.8961 68.6386C76.882 68.4545 77.9145 68.3645 78.8804 68.0885C80.4881 67.6292 82.1072 67.2165 83.7154 66.7544C84.6082 66.4978 85.6475 66.2347 86.5733 66.1635"  strokeLinecap="round"/>
<path d="M67.9765 69.5751C67.443 69.5751 66.9466 69.4816 66.4157 69.445C65.7786 69.401 65.1225 69.4413 64.4831 69.4413C63.4169 69.4413 62.4236 69.8203 61.4357 70.1622C59.95 70.6765 58.3271 71.7654 57.8085 73.3212"  strokeLinecap="round"/>
<path d="M56.27 75.3949C56.4451 75.154 56.4849 74.7522 56.6044 74.4733C56.7749 74.0754 57.0219 73.6881 57.2734 73.336C57.3901 73.1726 57.5818 73.0127 57.7268 72.8678C58.5521 72.0424 59.7393 71.5419 60.7816 71.0468C61.1575 70.8682 61.7949 70.5282 62.2087 70.5116C62.9152 70.4833 63.6592 70.3778 64.3977 70.3778C68.3709 70.3778 72.1978 71.6188 75.7363 73.3881"  strokeLinecap="round"/>
<path d="M65.6376 68.5901C65.6899 69.0079 67.9442 69.5831 68.4511 69.5831C69.2525 69.5831 70.1109 69.8037 70.9336 69.8037C72.0384 69.8037 73.1257 69.9766 74.2558 69.8589C74.9574 69.7858 75.6394 69.7323 76.3398 69.6934C76.7751 69.6692 77.56 69.6285 77.9396 69.4176C78.3561 69.1862 79.1333 69.1103 79.6008 69.0253C79.9418 68.9632 80.2018 68.8291 80.5324 68.8107C80.8433 68.7935 81.112 68.5116 81.4151 68.4797C82.0498 68.4129 82.6176 68.0189 83.2478 67.9219C84.8818 67.6706 86.0788 66.5843 87.373 65.7214"  strokeLinecap="round"/>
<path d="M67.072 69.3624C67.8571 68.993 69.0098 69.1071 69.8732 68.9763C70.5562 68.8728 71.3855 68.8269 72.0614 68.8108C73.3942 68.779 74.7213 68.7005 76.064 68.7005C76.6791 68.7005 77.5412 68.8653 78.1052 68.6146C78.3988 68.4841 79.2646 68.4798 79.5946 68.4798C81.088 68.4798 82.5761 67.3896 83.9527 67.0455"  strokeLinecap="round"/>
<path d="M73.1402 69.1418C74.3179 69.1418 75.4087 68.8108 76.5605 68.8108"  strokeLinecap="round"/>
<path d="M54.136 101.325C54.136 102.044 54.5625 102.82 54.8786 103.453C55.2208 104.137 55.4629 104.934 55.8522 105.59C56.1652 106.119 56.3493 106.83 56.7554 107.287C56.966 107.523 57.4453 107.853 57.5684 108.1"  strokeLinecap="round"/>
<path d="M53.6843 100.964C53.8079 102.941 54.6652 104.564 55.5862 106.253C56.1117 107.216 56.7 107.918 57.5684 108.642"  strokeLinecap="round"/>
<path d="M55.0392 103.493C55.2471 104.13 55.4906 104.794 55.9425 105.299C56.3564 105.762 56.6201 106.544 57.2121 106.84C58.0242 107.246 58.5465 108.247 59.3749 108.662C60.0994 109.024 60.7148 109.138 61.5478 109.229C63.4721 109.438 65.8362 109.557 67.3738 108.19C67.6272 107.965 67.9099 107.831 68.2169 107.678C68.6664 107.453 68.9801 107.131 69.356 106.795C70.0156 106.205 70.7854 105.42 71.569 105.028"  strokeLinecap="round"/>
<path d="M56.3941 107.196C56.6857 107.196 57.0896 107.452 57.2974 107.648C57.5129 107.851 57.7902 107.931 57.9999 108.12C58.3932 108.474 58.9488 108.703 59.4201 108.912C60.3497 109.326 61.3315 109.498 62.3155 109.705C63.0795 109.866 63.9065 109.816 64.6841 109.816C65.3361 109.816 65.6862 109.412 66.2849 109.279C66.8246 109.159 67.6924 108.545 68.0613 108.14C68.2695 107.911 68.6699 107.839 68.8592 107.603C69.0329 107.386 69.6224 107.083 69.8729 106.925C70.6162 106.457 71.3902 106.023 72.1561 105.611C73.0186 105.146 73.8137 104.666 74.7154 104.261C75.3656 103.968 75.945 103.449 76.6273 103.222"  strokeLinecap="round"/>
<path d="M55.4908 105.57C55.5305 106.521 56.2609 107.414 56.9009 108.054C57.5803 108.734 58.3742 109.135 59.2344 109.545C59.9396 109.881 60.628 109.974 61.3219 110.172C61.9639 110.355 63.0037 110.157 63.6202 110.016C64.455 109.826 65.49 109.759 66.2196 109.254C67.0647 108.669 68.0291 108.207 68.7689 107.467C69.5659 106.67 70.66 105.799 71.6593 105.299"  strokeLinecap="round"/>
<path d="M56.7771 105.632C56.8481 105.64 56.9225 105.681 56.9933 105.697C57.2251 105.75 57.4624 105.79 57.6966 105.842C58.1326 105.939 58.5835 105.997 59.0146 106.113C60.1832 106.428 61.3726 106.723 62.5748 106.926C63.6809 107.112 64.803 107.3 65.9238 107.374C66.1339 107.388 66.3374 107.403 66.5481 107.403C66.6982 107.403 66.8489 107.287 66.9788 107.223C67.5471 106.942 68.141 106.71 68.692 106.394C69.0681 106.178 69.5017 106.039 69.8583 105.792C70.0766 105.641 70.3304 105.541 70.5552 105.398C70.692 105.311 70.8816 105.16 71.0343 105.109"  strokeLinecap="round"/>
<path d="M70.9182 105.168C70.9074 105.211 70.8105 105.254 70.7714 105.271C70.6092 105.342 70.4572 105.454 70.2939 105.532C69.8311 105.753 69.3983 106.01 68.9162 106.2C68.1709 106.494 67.4464 106.837 66.6546 107.008C66.0956 107.129 65.5402 107.229 64.9672 107.229C64.0484 107.229 63.165 107.213 62.2554 107.065C61.4829 106.939 60.7371 106.715 59.9809 106.519C59.298 106.343 58.6039 106.196 57.9257 106.003C57.2732 105.817 56.6705 105.504 56.0867 105.168C55.8356 105.023 55.6623 104.741 55.4124 104.616"  strokeLinecap="round"/>
<path d="M55.2672 103.251C55.2852 103.413 55.6947 103.682 55.8253 103.774C55.9577 103.867 56.0862 103.969 56.2189 104.064C56.4102 104.201 56.569 104.36 56.7771 104.477C56.9433 104.571 57.1532 104.723 57.2997 104.848C57.4979 105.018 57.8067 105.118 58.0386 105.232C58.9117 105.66 59.8631 106.005 60.8132 106.213C61.7689 106.422 62.762 106.507 63.7379 106.534C64.0842 106.544 64.4255 106.59 64.772 106.59C65.0751 106.59 65.3787 106.586 65.6818 106.592C66.0705 106.6 66.4535 106.59 66.8384 106.59C67.4838 106.59 68.054 106.278 68.6371 106.032C69.1419 105.82 69.6036 105.484 70.0761 105.21C70.4346 105.002 70.7771 104.758 71.1214 104.529"  strokeLinecap="round"/>
<path d="M83.9877 103.699C83.4059 103.303 82.7033 103.11 82.031 102.934C81.5472 102.808 81.0521 102.698 80.5579 102.62C80.2049 102.564 79.8298 102.471 79.4711 102.471C79.2548 102.471 79.1338 102.59 78.9504 102.695C78.7994 102.781 78.4793 103.006 78.4091 103.164C78.3444 103.309 78.2308 103.434 78.1363 103.562C78.0519 103.678 78.0164 103.84 77.9628 103.971C77.8017 104.365 77.698 104.803 77.6363 105.223C77.537 105.901 77.4687 106.586 77.5248 107.273C77.5678 107.8 77.6002 108.327 77.6446 108.854C77.6794 109.266 77.7559 109.651 77.814 110.058"  strokeLinecap="round"/>
<path d="M85.8472 104.591C85.8138 104.562 85.7699 104.539 85.7274 104.525C85.4879 104.445 85.261 104.327 85.0228 104.238C84.2639 103.955 83.5088 103.703 82.7232 103.504C81.6628 103.237 80.6109 102.937 79.5289 102.777C79.0482 102.706 78.7463 103.035 78.3884 103.288C78.1787 103.436 78.1655 103.637 78.0165 103.829C77.8675 104.02 77.7724 104.301 77.719 104.538C77.5706 105.195 77.4421 105.839 77.4421 106.525C77.4421 106.81 77.4421 107.095 77.4421 107.381"  strokeLinecap="round"/>
<path d="M55.3823 81.9025C55.3529 82.1373 55.1322 82.491 54.9856 82.6794C54.8867 82.8066 54.8552 83.0117 54.785 83.1577C54.6593 83.4191 54.5269 83.6832 54.4163 83.951C54.2244 84.4157 54.076 84.9954 54.036 85.4956C53.9555 86.502 53.6861 87.4946 53.6207 88.5078C53.5694 89.3025 53.5344 90.1021 53.5344 90.8994C53.5344 91.5383 53.6053 92.1437 53.679 92.7753C53.7702 93.5567 53.7665 94.3523 53.9123 95.1272C53.9943 95.5628 54.0346 96.0028 54.0897 96.4431C54.1461 96.895 54.2483 97.3638 54.2483 97.8198"  strokeLinecap="round"/>
<path d="M55.4243 79.2986C55.2776 79.3169 55.307 79.7094 55.2656 79.8026C55.1647 80.0297 55.158 80.3018 55.0673 80.5375C54.9828 80.7573 54.9203 81.1009 54.9203 81.3378C54.9203 81.6282 54.8076 82.013 54.743 82.3038C54.4911 83.4374 54.2525 84.5927 54.1433 85.75C54.0054 87.2124 53.9543 88.66 53.9543 90.1341"  strokeLinecap="round"/>
<path d="M87.9997 80.3269C88.0211 80.498 88.2673 80.7272 88.3562 80.8871C88.5114 81.1666 88.588 81.4583 88.7353 81.7529C88.9159 82.1141 89.1089 82.5541 89.2163 82.93C89.5923 84.2457 90.0033 85.6376 90.3651 87.0044C90.6881 88.2248 90.839 89.4384 91.0611 90.66C91.2225 91.5477 91.1573 94.2672 91.1573 93.365"  strokeLinecap="round"/>
<path d="M91.9722 92.4482C91.9722 91.7106 91.9722 90.9252 91.9722 90.2073C91.9722 89.1502 91.6358 88.2988 91.4629 87.3043C91.3802 86.8289 91.1526 86.4185 91.0441 85.9575C90.911 85.3915 90.7591 84.7141 90.5009 84.1976C90.3479 83.8915 90.2274 83.464 90.1331 83.1337C90.0305 82.7746 89.7313 82.5586 89.7313 82.1604"  strokeLinecap="round"/>
<path d="M90.9536 84.8088C90.9536 86.1263 91.4629 87.373 91.4629 88.7021C91.4629 89.3736 91.4629 90.0451 91.4629 90.7166C91.4629 91.1493 91.2592 91.6046 91.2592 91.9899C91.2592 92.5797 90.5524 93.4661 90.1953 93.9252C89.9054 94.2979 89.5818 94.7568 89.1654 94.9948C88.8324 95.185 87.8298 95.6401 87.6941 95.9115"  strokeLinecap="round"/>
<path d="M83.5178 77.6786C83.8899 77.7199 84.1078 78.3242 84.3836 78.5387C84.8386 78.8926 85.3412 79.2982 85.7587 79.7158C86.3584 80.3154 87.035 80.873 87.5922 81.5266C88.0799 82.0987 88.7913 82.719 89.1427 83.3827C89.5291 84.1126 89.7079 84.9346 90.0369 85.6746C90.5685 86.8707 91.3008 87.9708 91.5647 89.2906"  strokeLinecap="round"/>
<path d="M90.5158 87.2812C90.5158 87.7326 90.5574 88.1829 90.5574 88.6357C90.5574 88.8742 90.5108 89.1165 90.4626 89.3493C90.411 89.598 90.3959 89.8546 90.34 90.1023C90.3172 90.203 90.3181 90.3108 90.3076 90.4134C90.2945 90.5405 90.2558 90.6616 90.2405 90.7881C90.2069 91.0662 90.1827 91.3404 90.1827 91.6209C90.1827 91.9817 90.1361 92.3574 90.0878 92.7162C90.0508 92.9915 89.9913 93.2933 89.8912 93.5525C89.8709 93.6049 89.8652 93.6779 89.8391 93.7248C89.7933 93.8073 89.7366 93.9074 89.7084 93.9966C89.6629 94.1407 89.5424 94.2771 89.4725 94.413C89.3417 94.6672 89.1275 94.8921 88.9682 95.1301C88.8355 95.3284 88.6801 95.5652 88.5056 95.7327C88.4243 95.8107 88.3424 95.8877 88.2627 95.9675C88.1788 96.0513 88.4133 95.8352 88.4338 95.8171"  strokeLinecap="round"/>
<path d="M90.9321 88.1348C90.87 88.6113 90.7672 89.091 90.6522 89.5575C90.5824 89.8408 90.5293 90.1236 90.4695 90.4087C90.4285 90.6042 90.4259 90.8036 90.3897 90.9998C90.3004 91.4837 90.3284 91.9917 90.3284 92.4826C90.3284 92.6173 90.3352 92.6945 90.2856 92.8434C90.2017 93.0951 90.0249 93.3857 89.9953 93.6519C89.9917 93.6842 89.9677 93.7156 89.9536 93.7445C89.8824 93.8906 89.8275 94.0443 89.7431 94.184C89.6274 94.3757 89.4982 94.5593 89.3834 94.7519C89.32 94.8583 89.2345 94.9672 89.2041 95.0884"  strokeLinecap="round"/>
<path d="M90.599 90.425C90.5944 90.5038 90.5335 90.5772 90.4949 90.6424C90.4109 90.7847 90.3352 90.9319 90.2613 91.0796C90.1381 91.326 89.9933 91.5604 89.8611 91.8014C89.6772 92.1367 89.491 92.4733 89.3291 92.8204C89.0869 93.3393 88.7481 93.8181 88.4466 94.3031C88.3052 94.5306 88.1578 94.7648 87.9712 94.959C87.5931 95.3522 87.1919 95.727 86.7764 96.0786C86.3263 96.4594 85.8566 96.8148 85.3942 97.182C84.9783 97.5123 84.582 97.8731 84.1243 98.1478C83.9963 98.2246 83.863 98.2944 83.7322 98.3664C83.6902 98.3894 83.669 98.4136 83.6246 98.3988"  strokeLinecap="round"/>
<path d="M44.4023 80.9956C44.1416 80.9666 43.906 80.7538 43.6273 80.7435C43.3073 80.7316 43.0059 80.6873 42.7031 80.5941C41.9697 80.3685 41.0415 80.4346 40.3036 80.4914C38.8291 80.6048 38.1984 82.1508 37.5121 83.1803"  strokeLinecap="round"/>
<path d="M37.7642 83.7684C37.8223 83.1287 38.1482 82.1766 38.6464 81.7891C39.2087 81.3518 39.8025 81.1856 40.453 80.9068C40.87 80.7282 41.6651 80.3969 42.1335 80.5941C42.507 80.7513 42.9153 80.7716 43.2912 80.9115C43.5605 81.0117 43.8071 81.1613 44.0661 81.2476"  strokeLinecap="round"/>
<path d="M41.0076 79.528C40.8216 79.6933 40.5766 79.7846 40.3972 79.964C40.1886 80.1726 40.0021 80.3848 39.8208 80.6179C39.5836 80.9229 39.436 81.2492 39.2202 81.5673C39.1244 81.7085 38.9973 81.8785 38.9537 82.042C38.8729 82.3453 38.6579 82.6408 38.542 82.9357C38.3526 83.4179 38.2219 83.9276 38.0625 84.4204C37.8093 85.203 37.6507 86.1191 37.6507 86.9393"  strokeLinecap="round"/>
<path d="M40.3972 80.2256C40.3864 80.3233 40.2571 80.4373 40.1986 80.5114C40.0887 80.6507 40.0281 80.8063 39.9274 80.9473C39.7854 81.146 39.6774 81.3602 39.5689 81.577C39.3311 82.0527 39.0365 82.4992 38.8617 83.006C38.5103 84.0251 38.2927 85.0616 37.9995 86.0965C37.8632 86.5774 37.8251 87.0938 37.8251 87.5932"  strokeLinecap="round"/>
<path d="M38.4355 94.7865C38.4355 95.0605 38.6086 95.3299 38.7745 95.5373C38.8355 95.6136 38.873 95.7258 38.9392 95.811C39.0312 95.9293 39.1842 95.9982 39.2541 96.138C39.3619 96.3536 39.7575 96.5536 39.9516 96.6853C40.2093 96.8602 40.6099 96.9935 40.9204 97.0099C41.3079 97.0303 41.6927 97.1046 42.0926 97.0971C42.2975 97.0932 42.534 97.0752 42.7393 97.051C42.9655 97.0244 43.1751 96.8954 43.3957 96.8791C43.8183 96.8478 44.359 96.5863 44.7326 96.3995C45.319 96.1063 45.9149 95.8205 46.5006 95.5276"  strokeLinecap="round"/>
<path d="M108.149 78.5195C108.98 78.2424 109.973 78.0874 110.851 78.0753C111.399 78.0676 111.925 78.1654 112.468 78.1863C113.122 78.2115 113.695 78.7448 114.112 79.2106C114.713 79.8817 115.201 80.3661 115.365 81.2653C115.425 81.5963 115.442 81.9363 115.482 82.2741C115.514 82.5491 115.534 82.8005 115.534 83.0793C115.534 83.344 115.632 83.8428 115.479 84.0727"  strokeLinecap="round"/>
<path d="M111.925 94.0129C111.798 94.2535 111.675 94.4952 111.548 94.7349C111.479 94.867 111.381 94.929 111.24 94.9878C110.977 95.0977 110.81 95.3174 110.567 95.4568C110.216 95.6587 109.778 95.9521 109.383 96.0553C109.137 96.1193 108.919 96.3049 108.667 96.3576C108.343 96.4254 108.045 96.5041 107.717 96.5119C107.539 96.5161 107.276 96.5581 107.106 96.6106C107.066 96.6228 106.917 96.6047 106.982 96.6353C107.109 96.6947 107.26 96.6886 107.396 96.7217C108.081 96.8884 108.828 96.87 109.528 96.842C110.021 96.8223 110.558 96.6514 110.87 96.262C110.963 96.1455 110.842 96.2528 110.774 96.2928C110.468 96.474 110.133 96.6209 109.796 96.7309C109.28 96.8995 108.715 96.8651 108.173 96.842C107.424 96.8101 106.685 96.7255 106.011 96.4317C105.749 96.3174 105.506 96.1971 105.236 96.1201C104.999 96.0523 104.771 95.8674 104.539 95.79"  strokeLinecap="round"/>
<path d="M77.3467 102.828C76.9956 102.849 76.9059 103.235 76.6253 103.396C76.369 103.542 76.2213 103.942 76.0229 104.152C75.804 104.384 75.6955 104.582 75.6412 104.881C75.4626 105.863 75.3826 106.803 75.5501 107.809C75.7053 108.74 75.8878 109.737 76.212 110.624C76.563 111.585 76.7064 112.607 77.0596 113.566C77.3511 114.358 77.6889 115.12 78.0682 115.871C78.2182 116.168 78.3621 116.465 78.5095 116.76C78.5836 116.908 78.6052 117.263 78.7336 117.327"  strokeLinecap="round"/>
<path d="M76.086 104.53C76.086 105.14 76.086 105.749 76.086 106.359C76.086 106.974 76.2249 107.608 76.2786 108.225C76.3657 109.227 76.4915 110.28 76.6568 111.272C76.7028 111.548 76.9772 111.86 77.1016 112.109C77.4166 112.739 77.7003 113.348 78.1032 113.923"  strokeLinecap="round"/>
<path d="M71.4841 105.476C71.6758 105.452 71.8874 105.267 72.0899 105.224C72.4269 105.153 72.7635 105.057 73.1091 105.035C73.716 104.996 74.2402 104.761 74.8182 105.098C75.2149 105.329 75.4788 105.702 75.7707 106.075C75.9887 106.354 76.2017 106.673 76.3871 106.975C76.6042 107.329 76.7878 107.702 77.0105 108.054C77.0855 108.172 77.1576 108.236 77.1576 108.376"  strokeLinecap="round"/>
<path d="M74.2578 103.648C74.4629 103.671 74.733 103.916 74.8882 104.04C75.0869 104.199 75.4778 104.391 75.5816 104.625C75.7193 104.935 75.9726 105.061 76.0229 105.413"  strokeLinecap="round"/>
<path d="M71.7362 105.602C72.0276 105.343 72.6801 105.521 73.018 105.588C73.6271 105.71 74.3937 105.926 74.7971 106.425C75.1324 106.84 75.3912 107.314 75.5781 107.812C75.8407 108.512 76.0778 109.224 76.3206 109.931C76.9172 111.668 77.4726 113.419 78.0682 115.156C78.1494 115.393 78.5295 116.586 78.5445 116.571"  strokeLinecap="round"/>
<path d="M73.5644 104.909C73.7155 105.177 74.2798 105.401 74.51 105.599C75.076 106.084 75.4871 106.8 75.9599 107.367"  strokeLinecap="round"/>
<path d="M76.4572 109.412C76.3157 109.635 76.5801 110.208 76.6277 110.441C76.7173 110.878 76.7624 111.31 76.8284 111.75C76.9822 112.775 77.0681 113.803 77.2797 114.814C77.4525 115.639 77.6855 116.487 78.0069 117.271C78.4736 118.409 78.8685 119.58 79.2557 120.742"  strokeLinecap="round"/>
<path d="M57.1448 50.75L58 45.0716L58.8552 50.75H57.1448Z"   strokeWidth="3"/>
<path d="M69.8349 48.4719L69.6161 43.3447L70.8413 48.3282L69.8349 48.4719Z"   strokeWidth="3"/>
<path d="M58.9312 134.349C59.1237 134.37 59.3167 134.573 59.5063 134.627C59.7253 134.69 59.9621 134.734 60.21 134.734C60.9993 134.734 61.9043 134.963 62.5597 134.398C62.6733 134.3 62.927 134.126 62.9513 133.963C62.9611 133.898 62.9387 133.831 62.9636 133.768C63.0831 133.462 63.0982 133.128 63.1992 132.825C63.262 132.637 63.2267 132.392 63.2267 132.195C63.2267 131.665 63.2818 131.136 63.2818 130.604C63.2818 128.139 63.5571 125.688 63.5571 123.224"  strokeLinecap="round"/>
<path d="M102.119 113.925C102.349 113.951 102.732 114.596 102.79 114.799C102.901 115.188 103.129 115.522 103.189 115.948C103.271 116.517 103.299 117.066 103.299 117.646C103.299 118.43 102.619 119.117 102.069 119.594C101.129 120.409 99.864 120.675 98.9723 121.567"  strokeLinecap="round"/>
</svg>
