<svg width="148" height="148" viewBox="0 0 148 148" fill="none" xmlns="http://www.w3.org/2000/svg">
<path d="M25 58H111C113.218 58 114.796 56.288 114.493 54.4463L114.458 54.2676C113.943 52.0309 113.062 49.8271 111.821 47.6982L111.568 47.2734C109.292 43.5312 105.936 40.1032 101.671 37.1992C97.406 34.2955 92.3257 31.9808 86.7148 30.3984C81.1045 28.8162 75.0842 28 69 28C62.9158 28 56.8955 28.8162 51.2852 30.3984C45.6743 31.9808 40.594 34.2955 36.3291 37.1992C32.0638 40.1032 28.7084 43.5312 26.4316 47.2734C24.923 49.7533 23.2251 52.1246 22.1064 54.5967C21.706 55.4819 21.8841 56.2779 22.4004 56.8916C22.9417 57.535 23.8868 58 25 58Z"   />
<path d="M36 106H112C116.884 106 120.72 102.17 120.08 97.7061L120.004 97.2725C119.42 94.4512 118.582 91.6835 117.496 89.0068C115.183 83.3031 111.792 78.1222 107.52 73.7588C103.247 69.3955 98.176 65.9355 92.5967 63.5752C87.0173 61.2149 81.0379 60 75 60C68.9621 60 62.9827 61.2149 57.4033 63.5752C51.824 65.9355 46.7529 69.3955 42.4805 73.7588C38.208 78.1222 34.8173 83.3031 32.5039 89.0068C31.3444 91.8658 30.0491 94.6728 28.9775 97.6055C28.161 99.8402 28.6812 101.897 29.9951 103.424C31.3277 104.972 33.5067 106 36 106Z"   />
<path d="M119.89 88H129.188C130.524 88 131.73 87.4459 132.499 86.6104C133.254 85.7902 133.589 84.7084 133.256 83.5332C132.765 81.8052 132.051 80.2524 131.164 78.959C130.277 77.6652 129.243 76.6673 128.136 75.998C127.032 75.3308 125.872 75 124.719 75C123.565 75 122.406 75.3308 121.302 75.998C120.194 76.6673 119.16 77.6652 118.273 78.959C117.387 80.2524 116.672 81.8052 116.182 83.5332C115.826 84.7869 116.115 85.878 116.77 86.6621C117.434 87.4578 118.532 87.9999 119.89 88Z"   />
<path d="M18.1465 91H28.9434C30.0707 90.9999 31.083 90.5293 31.7129 89.8359C32.2876 89.2031 32.5447 88.3944 32.3184 87.5137L32.2666 87.3359C31.7837 85.8621 31.0801 84.5353 30.2041 83.4277C29.3283 82.3204 28.3014 81.4574 27.1895 80.875C26.0789 80.2933 24.9003 80 23.7188 80C22.5372 80 21.3586 80.2933 20.248 80.875C19.1361 81.4574 18.1092 82.3204 17.2334 83.4277C16.3574 84.5353 15.6538 85.8621 15.1709 87.3359C14.8303 88.3757 15.0474 89.2624 15.5615 89.8945C16.0875 90.5413 16.9914 91 18.1465 91Z"   />
<path d="M44.0165 108.142L44.074 123.704C44.0776 124.633 44.4763 125.452 45.0256 125.928C45.5138 126.35 46.1078 126.505 46.7534 126.262L46.8831 126.207C48.0887 125.659 49.1886 124.855 50.1175 123.839C51.0466 122.822 51.7861 121.612 52.2899 120.277C52.7938 118.942 53.0512 117.509 53.0459 116.062C53.0405 114.616 52.7725 113.186 52.2588 111.856C51.7451 110.526 50.9967 109.324 50.0602 108.316C49.2407 107.435 48.2914 106.718 47.2564 106.193L46.8084 105.979C45.9832 105.613 45.3241 105.751 44.8713 106.097C44.3934 106.462 44.013 107.163 44.0165 108.142Z"   />
<path d="M97.4101 107.652L97.0906 120.242C97.0723 120.964 97.3645 121.606 97.7692 121.983C98.0994 122.29 98.492 122.423 98.9312 122.311L99.1223 122.248C100.112 121.848 101.023 121.241 101.799 120.459C102.576 119.676 103.204 118.734 103.644 117.683C104.083 116.633 104.325 115.497 104.355 114.342C104.384 113.186 104.2 112.035 103.814 110.956C103.429 109.878 102.85 108.894 102.114 108.06C101.47 107.33 100.718 106.728 99.8911 106.276L99.5324 106.091C98.9095 105.791 98.4269 105.885 98.0967 106.12C97.7859 106.342 97.5083 106.763 97.4308 107.378L97.4101 107.652Z"   />
<path d="M79.445 59.9983H81.7258C82.2304 59.9958 82.7343 59.9899 83.2379 59.9774C84.5316 59.8774 85.7937 59.4533 87.1056 59.4533C88.0146 59.4533 88.8971 59.1564 89.7178 59.09C89.9688 59.0697 90.1359 58.9647 89.8499 59.1304C89.2514 59.4769 88.4081 59.4895 87.766 59.5946C86.2541 59.8422 84.7474 59.9398 83.2379 59.9774C83.0651 59.9908 82.8917 59.9983 82.7176 59.9983H81.7258C80.9673 60.0021 80.2073 59.9983 79.445 59.9983Z" />
<path d="M60 58.545C61.6516 58.545 63.282 58.9083 64.931 58.9083C65.6206 58.9083 66.2956 59.0749 66.9855 59.09C67.3824 59.0987 67.8673 58.9835 68.2403 59.1808C68.958 59.5605 69.9292 59.1091 70.625 59.5442C71.0064 59.7826 71.6023 59.635 72.0192 59.635C73.3892 59.635 74.7709 59.9983 76.165 59.9983C78.3492 59.9983 80.5334 59.9983 82.7176 59.9983C84.1953 59.9983 85.6184 59.4533 87.1056 59.4533C88.0146 59.4533 88.8971 59.1564 89.7178 59.09C89.9688 59.0697 90.1359 58.9647 89.8499 59.1304C89.2514 59.4769 88.4081 59.4895 87.766 59.5946C84.9914 60.0489 82.2339 59.9983 79.445 59.9983C78.6504 59.9983 77.8843 59.9983 77.1189 59.9983C76.536 59.9983 78.2582 59.6589 78.8286 59.4937C79.6043 59.2691 80.4346 59.3269 81.2207 59.1304C82.4469 58.8237 83.768 58.4532 85.0143 58.3734C85.8535 58.3197 86.6448 58 87.4725 58"  strokeLinecap="round"/>
<path d="M89 58C88.3179 58.6775 87.3387 58.5834 86.5758 58.7759C85.4241 59.0664 84.3048 59.3943 83.1439 59.5651C80.518 59.9515 77.8666 59.5477 75.2348 59.8059C74.3844 59.8893 73.0566 60.2828 72.2273 59.632C71.8633 59.3464 71.3944 59.2039 71 59.2039"  strokeLinecap="round"/>
<path d="M50 58.3731C51.0806 58.3731 52.1612 58.3731 53.2418 58.3731C54.1107 58.3731 54.8903 58.7236 55.7666 58.7461C57.5858 58.7929 59.3609 59.8654 61.2269 59.8654C63.5065 59.8654 65.7805 60.9846 68.0467 60.9846C70.1773 60.9846 72.3559 60.9846 74.4706 60.9846C75.5238 60.9846 76.577 60.9846 77.6303 60.9846C78.4146 60.9846 79.5956 61.0989 80.3343 60.7048C80.9096 60.3978 81.7159 60.6115 82.3361 60.6115C82.8225 60.6115 83.3031 60.425 83.8151 60.425C84.6212 60.425 85.3876 60.1121 86.1681 60.0519C88.5768 59.8662 90.9162 59.3246 93.2941 58.8394C94.2026 58.6541 95.2491 58.3731 96.1699 58.3731C96.7737 58.3731 97.3687 58 98 58"  strokeLinecap="round"/>
<path d="M60 58.3172C60.79 57.8691 62.1154 57.975 62.9374 58.1543C63.684 58.3172 64.9135 57.9297 65.5384 58.4219C66.5075 59.1853 67.9778 58.5952 68.9271 59.3643C69.3334 59.6935 67.9102 59.884 67.8932 59.8878C66.8767 60.1203 65.8005 59.9525 64.7917 59.7366C63.9722 59.5612 63.1142 59.7182 62.3056 59.469C61.8367 59.3245 61.5232 59.1549 61.0338 59.1549"  strokeLinecap="round"/>
<path d="M30.625 85C30.6831 85.7013 31 86.1723 31 86.9916C31 87.8936 30.9794 89.0182 30.6875 89.8113C30.1191 91.3556 30 93.1829 30 95"  strokeLinecap="round"/>
<path d="M29 82C29.3242 82.6419 29.703 83.3851 29.8013 84.3033C29.8444 84.7048 29.8978 85.1387 29.9091 85.54C29.9214 85.9774 29.8799 86.5062 29.9545 86.92C29.9988 87.1654 29.9697 87.5068 29.9697 87.7633C29.9697 88.2149 30 88.6795 30 89.14C30 89.455 29.9697 89.7511 29.9697 90.0667C29.9697 90.3727 29.9091 90.6543 29.9091 90.9533C29.9091 91.3068 29.8406 91.7092 29.7946 92.0533C29.7627 92.292 29.741 92.5463 29.6801 92.77C29.5605 93.21 29.5313 93.7787 29.4865 94.2667C29.4457 94.711 29.4225 95.1379 29.3266 95.56C29.2325 95.9739 29.1818 96.5516 29.1818 97"  strokeLinecap="round"/>
<path d="M116.494 80.1109C116.472 80.2378 116.431 80.4192 116.376 80.6196C116.254 80.6837 116.096 80.7088 115.929 80.7122C115.867 80.7814 115.802 80.8429 115.738 80.8815C115.388 81.0896 114.738 81.0275 114.348 81.0275C113.89 81.0275 112.866 81.3096 112.705 80.557C112.633 80.2193 112.164 79.2104 112.72 79.6729C113.442 80.2733 114.163 80.5176 114.984 80.6057C115.153 80.6238 115.562 80.7198 115.929 80.7122C115.995 80.6373 116.058 80.5533 116.113 80.48C116.228 80.3262 116.447 80.0872 116.467 79.8595C116.499 79.4878 116.53 79.9112 116.494 80.1109Z" />
<path d="M113.852 81.1005C113.899 81.1083 114.129 81.5407 114.191 81.6277C114.324 81.8123 114.482 81.9765 114.696 81.9765C115.024 81.9765 115.334 82.0294 115.65 81.9765C116.051 81.9093 116.407 80.6017 116.494 80.1109C116.53 79.9112 116.499 79.4878 116.467 79.8595C116.447 80.0872 116.228 80.3262 116.113 80.48C116.008 80.621 115.873 80.801 115.738 80.8815C115.388 81.0896 114.738 81.0275 114.348 81.0275C113.89 81.0275 112.866 81.3096 112.705 80.557C112.633 80.2193 112.164 79.2104 112.72 79.6729C113.442 80.2733 114.163 80.5176 114.984 80.6057C115.287 80.6382 116.359 80.92 116.576 80.411C116.622 80.3024 116.752 80.152 116.821 80.0785C117.041 79.843 117.214 79.5709 117.405 79.2917C117.473 79.1926 117.586 79.0193 117.623 78.8942C117.667 78.7463 118.206 77.8105 117.913 78.0345C117.699 78.1987 117.493 78.7604 117.338 79.02C117.186 79.2746 116.81 79.3583 116.618 79.5512C116.429 79.7409 116.038 79.7487 115.813 79.8757C115.52 80.0411 115.178 80.0182 114.866 80.0825C114.4 80.1786 113.899 80.1658 113.459 79.9325C113.163 79.7757 112.87 79.6843 112.578 79.531C112.408 79.4416 112.084 79.3534 112 79.1295"  strokeLinecap="round"/>
<path d="M50.5041 108.247C50.6236 108.471 50.7281 108.692 50.8148 108.894C50.9318 109.166 50.677 108.9 50.6281 108.809C50.4872 108.546 50.2479 108.309 50.0599 108.09C50.0532 108.082 50.0465 108.074 50.0398 108.067C48.5086 107.505 47.0306 107.191 45.4247 107.191C45.1357 107.191 44.8126 107.206 44.548 107.343C44.4531 107.392 44.2883 107.532 44.1827 107.532C43.7065 107.532 44.2993 106.561 44.4059 106.468C44.9411 106 45.7677 106.201 46.3745 106.255C46.9533 106.307 47.7547 106.557 48.274 106.851C48.8798 107.194 49.5493 107.508 50.0398 108.067C50.1517 108.108 50.2639 108.15 50.3765 108.194C50.4203 108.211 50.4628 108.228 50.5041 108.247Z" />
<path d="M44.0366 106.851C44.0366 106.189 45.0535 106 45.4572 106C46.6966 106 47.9611 106.003 49.1061 106.596C49.8361 106.974 50.468 108.086 50.8148 108.894C50.9318 109.166 50.677 108.9 50.6281 108.809C50.4872 108.546 50.2479 108.309 50.0599 108.09C49.5677 107.516 48.8881 107.199 48.274 106.851C47.7547 106.557 46.9533 106.307 46.3745 106.255C45.7677 106.201 44.9411 106 44.4059 106.468C44.2993 106.561 43.7065 107.532 44.1827 107.532C44.2883 107.532 44.4531 107.392 44.548 107.343C44.8126 107.206 45.1357 107.191 45.4247 107.191C47.148 107.191 48.724 107.552 50.3765 108.194C51.2507 108.533 51.6249 109.126 52 110"  strokeLinecap="round"/>
<path d="M101 107.178C100.664 107.14 100.406 107 100.042 107C99.7524 107 99.5125 107.012 99.2617 107.084C98.4457 107.317 98.1258 108.131 97.8889 108.901C97.3061 110.795 97 112.967 97 115"  strokeLinecap="round"/>
<path d="M101 108.001C100.407 108.001 99.6613 107.96 99.2545 108.537C99.0573 108.816 98.8793 108.999 98.7293 109.32C98.5831 109.633 98.5468 110.127 98.3495 110.383C98.1973 110.58 98.0667 111.09 97.9818 111.341C97.7574 112.002 97.5357 112.637 97.3798 113.324C97.1878 114.171 97 115.154 97 116"  strokeLinecap="round"/>
<path d="M101 107C100.22 107.2 99.2163 107.443 98.6852 108.182C98.3203 108.69 98.1823 109.403 98 110"  strokeLinecap="round"/>
<path d="M102 108.114C101.716 108.114 101.403 108.172 101.141 108.043C101.03 107.989 100.71 107.983 100.594 108.043C100.361 108.164 99.8985 108.286 99.7344 108.526C99.5597 108.782 99.2409 108.916 99.092 109.213C98.8848 109.625 98.6223 109.978 98.4366 110.413C97.9999 111.436 97.7946 112.407 97.5295 113.494C97.3486 114.236 97.3025 115.039 97.23 115.803C97.1891 116.235 97.1953 116.678 97.1519 117.11C97.1255 117.373 97.1252 117.78 97 118"  strokeLinecap="round"/>
<mask id="path-22-inside-1_21_29" >
<ellipse cx="1.47549" cy="4.06811" rx="1.47549" ry="4.06811" transform="matrix(0.99974 0.0228037 -0.0169245 0.999857 37.0498 45.506)"/>
</mask>
<ellipse cx="1.47549" cy="4.06811" rx="1.47549" ry="4.06811" transform="matrix(0.99974 0.0228037 -0.0169245 0.999857 37.0498 45.506)" />
<path d="M39.9312 49.6408L36.9319 49.5724C36.9172 50.4406 36.7736 51.0925 36.6482 51.4201C36.5808 51.5962 36.576 51.5285 36.7231 51.3636C36.8611 51.2088 37.4355 50.6523 38.438 50.6751L38.3872 53.6747L38.3364 56.6743C39.7463 56.7064 40.7125 55.931 41.2105 55.3726C41.7175 54.8041 42.0406 54.148 42.2526 53.5942C42.686 52.4618 42.9071 51.0874 42.9304 49.7092L39.9312 49.6408ZM38.3872 53.6747L38.438 50.6751C39.4405 50.698 39.9956 51.2803 40.1283 51.4413C40.2696 51.6128 40.2625 51.6802 40.2011 51.5011C40.0869 51.1681 39.9655 50.5101 39.9802 49.6419L36.981 49.5735L33.9817 49.5051C33.9584 50.8833 34.1327 52.2667 34.5275 53.418C34.7206 53.9811 35.0213 54.6514 35.5086 55.2426C35.9873 55.8233 36.9266 56.6421 38.3364 56.6743L38.3872 53.6747ZM36.981 49.5735L39.9802 49.6419C39.9949 48.7737 40.1385 48.1218 40.2639 47.7942C40.3313 47.6181 40.3361 47.6858 40.189 47.8507C40.051 48.0055 39.4766 48.5621 38.4741 48.5392L38.5249 45.5396L38.5757 42.5401C37.1658 42.5079 36.1996 43.2833 35.7016 43.8417C35.1946 44.4102 34.8715 45.0663 34.6595 45.6201C34.2261 46.7525 34.0051 48.1269 33.9817 49.5051L36.981 49.5735ZM38.5249 45.5396L38.4741 48.5392C37.4716 48.5163 36.9166 47.934 36.7839 47.773C36.6425 47.6015 36.6496 47.5341 36.711 47.7132C36.8252 48.0463 36.9466 48.7042 36.9319 49.5724L39.9312 49.6408L42.9304 49.7092C42.9537 48.331 42.7794 46.9476 42.3846 45.7963C42.1915 45.2332 41.8908 44.5629 41.4035 43.9717C40.9248 43.3911 39.9855 42.5722 38.5757 42.5401L38.5249 45.5396Z" fill="black" mask="url(#path-22-inside-1_21_29)"/>
<mask id="path-24-inside-2_21_29" >
<ellipse cx="1.59361" cy="5.96943" rx="1.59361" ry="5.96943" transform="matrix(0.988796 0.149271 -0.111332 0.993783 42.8485 42.7759)"/>
</mask>
<ellipse cx="1.59361" cy="5.96943" rx="1.59361" ry="5.96943" transform="matrix(0.988796 0.149271 -0.111332 0.993783 42.8485 42.7759)" />
<path d="M45.3354 49.184L42.369 48.7361C42.206 50.1918 41.9103 51.3801 41.6241 52.1074C41.4728 52.492 41.3852 52.5902 41.4304 52.5348C41.456 52.5036 41.5987 52.3314 41.8866 52.1672C42.1992 51.9889 42.7411 51.7932 43.4291 51.897L43.0951 54.8784L42.7611 57.8597C44.5801 58.1343 45.7111 56.9393 46.0909 56.4748C46.5805 55.8759 46.9297 55.1566 47.1838 54.5107C47.7085 53.1771 48.0978 51.4524 48.3018 49.6318L45.3354 49.184ZM43.0951 54.8784L43.4291 51.897C44.117 52.0009 44.5978 52.351 44.8607 52.6162C45.1029 52.8604 45.2029 53.0692 45.2207 53.107C45.2523 53.174 45.1892 53.0531 45.1277 52.6363C45.0113 51.8482 44.9872 50.6117 45.1503 49.156L42.1839 48.7082L39.2175 48.2604C39.0136 50.0811 39.01 51.8639 39.2234 53.309C39.3267 54.0088 39.5058 54.8079 39.8472 55.5322C40.112 56.0941 40.9421 57.5851 42.7611 57.8597L43.0951 54.8784ZM42.1839 48.7082L45.1503 49.156C45.3134 47.7004 45.6091 46.5121 45.8953 45.7847C46.0466 45.4001 46.1342 45.302 46.0889 45.3573C46.0634 45.3886 45.9207 45.5608 45.6327 45.725C45.3201 45.9032 44.7782 46.099 44.0903 45.9951L44.4243 43.0138L44.7583 40.0324C42.9393 39.7578 41.8082 40.9528 41.4284 41.4174C40.9389 42.0162 40.5896 42.7356 40.3355 43.3815C39.8108 44.7151 39.4215 46.4397 39.2175 48.2604L42.1839 48.7082ZM44.4243 43.0138L44.0903 45.9951C43.4023 45.8913 42.9215 45.5411 42.6586 45.276C42.4165 45.0318 42.3164 44.8229 42.2986 44.7851C42.2671 44.7182 42.3301 44.8391 42.3917 45.2558C42.5081 46.044 42.5321 47.2805 42.369 48.7361L45.3354 49.184L48.3018 49.6318C48.5058 47.8111 48.5094 46.0282 48.296 44.5832C48.1927 43.8833 48.0135 43.0842 47.6722 42.36C47.4074 41.7981 46.5772 40.307 44.7583 40.0324L44.4243 43.0138Z" fill="black" mask="url(#path-24-inside-2_21_29)"/>
<path d="M44.8677 106.679C45.0171 106.679 45.1506 106.675 45.2956 106.649C45.4245 106.625 45.5988 106.583 45.7269 106.583"  strokeLinecap="round"/>
<path d="M58.7661 58.6084C58.9423 58.6084 59.1184 58.6084 59.2946 58.6084C59.6712 58.6084 59.8752 58.7286 60.1893 58.938C60.5563 59.1827 60.9242 59.2907 61.356 59.3147C61.5465 59.3253 61.7913 59.39 61.9786 59.4455C62.3087 59.5433 62.7654 59.5031 63.1088 59.5031C63.9773 59.5031 64.8459 59.5031 65.7144 59.5031C67.5283 59.5031 69.3268 59.3883 71.1296 59.2206C71.7509 59.1628 72.3865 59.0143 73.0054 58.9145C73.3567 58.8578 73.715 58.9236 74.0675 58.8883C75.1328 58.7818 76.1984 58.7497 77.2748 58.7497C77.9502 58.7497 78.6211 58.8438 79.297 58.8438"  strokeLinecap="round"/>
<path d="M30.7746 85.1935C30.7746 85.8067 30.7746 86.42 30.7746 87.0332C30.7746 87.398 30.687 87.7277 30.687 88.0845"  strokeLinecap="round"/>
</svg>
