<svg width="148" height="148" viewBox="0 0 148 148" fill="none" xmlns="http://www.w3.org/2000/svg">
<rect width="148" height="148" />
<path d="M37 71V30.5H108V67L37 71Z"   strokeWidth="2"/>
<path d="M48 107V72L78.5 69L81 107H48Z"   strokeWidth="2"/>
<path d="M11 109.5L36 91L47.5 102L20.5 124.5L11 109.5Z"   strokeWidth="2"/>
<path d="M102.5 91H80.5V101H102.5V91Z"   strokeWidth="2"/>
<path d="M51 124.5V107H57L59.5 124.5H51Z"   strokeWidth="2"/>
<path d="M72.5 125V107L79.5 106.5L82 125H72.5Z"   strokeWidth="2"/>
<path d="M97 50.5V61"  strokeWidth="2"/>
<path d="M102 48V61.5"  strokeWidth="2"/>
<path d="M73 108.5H79"  strokeWidth="2"/>
<path d="M51 108.5H56.5"  strokeWidth="2"/>
<path d="M48.5 74L78 69"  strokeWidth="2"/>
<path d="M47.5 72.5L55.5 71.5"  strokeWidth="2"/>
<path d="M35 93H37H33.5"  strokeWidth="2"/>
<path d="M32.9373 93.7483C33.2823 93.4034 33.9462 93.3761 34.3844 93.2168C34.9434 93.0135 35.5893 92.951 36.1809 92.951C36.7079 92.951 37.3794 92.9891 37.8544 93.2266C38.1023 93.3506 38.354 93.4227 38.6074 93.5367C38.782 93.6153 38.9173 93.7778 39.0947 93.8369"  strokeLinecap="round"/>
<path d="M39.2719 94.4571C39.087 94.2722 38.8684 94.1715 38.6394 94.051C38.2641 93.8535 37.8525 93.6021 37.4557 93.4604C37.1049 93.3351 36.8194 93.2761 36.4418 93.2266C36.1771 93.1919 35.862 93.1724 35.5976 93.1724C35.1562 93.1724 34.7111 93.0838 34.2638 93.0838C33.9328 93.0838 33.4002 93.0263 33.1145 93.2167"  strokeLinecap="round"/>
<path d="M31.3426 94.8114C31.3699 94.5928 31.9858 94.5053 32.1744 94.4472C32.4079 94.3754 32.6991 94.2164 32.9373 94.1913C33.1705 94.1667 33.3653 93.9822 33.6018 93.9698C34.0345 93.947 34.4627 93.8369 34.9061 93.8369C35.4082 93.8369 35.9013 93.7926 36.4024 93.7926C36.9534 93.7926 37.4694 93.8728 38.0119 93.9599C38.4381 94.0284 38.8733 94.0683 39.2719 94.2454C39.4869 94.341 39.6808 94.5286 39.8921 94.6343"  strokeLinecap="round"/>
<path d="M80.4942 100.579C80.4942 100.821 80.4504 101.578 80.2751 101.718C80.1219 101.841 80.1934 102.207 80.0998 102.375C79.8314 102.859 79.8578 103.569 79.6859 104.104C78.9768 106.31 76.5467 105.839 74.7094 106.364"  strokeLinecap="round"/>
<path d="M80.2313 104.698C80.1378 105.446 79.4093 105.934 78.7412 106.101"  strokeLinecap="round"/>
<path d="M80.1466 100.931C80.1466 101.318 79.931 101.652 79.931 102.026C79.931 102.257 79.9292 102.486 79.8941 102.713C79.8662 102.895 79.8481 103.066 79.8481 103.253"  strokeLinecap="round"/>
<path d="M82.88 90.9745C82.344 91.0341 81.9599 91.4447 81.551 91.7575C81.4206 91.8571 81.2781 91.9595 81.1365 92.0404C81.0474 92.0913 81.039 92.2489 80.972 92.3233C80.8722 92.4341 80.7763 92.7665 80.6891 92.8101"  strokeLinecap="round"/>
<path d="M80.7549 94.0326C80.7549 93.7889 80.7549 93.5452 80.7549 93.3015C80.7549 93.132 80.7474 92.9868 80.8391 92.8387C81.0307 92.5292 81.2172 92.1966 81.5207 91.9774C81.6779 91.8639 81.8269 91.7437 82.0138 91.6814C82.3689 91.563 82.7415 91.5509 83.1078 91.5008C83.7422 91.414 84.3799 91.3914 85.0215 91.3914"  strokeLinecap="round"/>
<path d="M80.7934 99.402C80.8028 99.5898 80.8574 99.7924 80.9134 99.9698C80.9343 100.036 81.0017 100.104 81.0489 100.152C81.0893 100.192 81.1369 100.227 81.1913 100.248C81.2406 100.266 81.2792 100.301 81.3268 100.325C81.4133 100.369 81.5059 100.401 81.5952 100.438C81.8709 100.553 82.1696 100.637 82.4691 100.637C82.6052 100.637 82.7413 100.637 82.8774 100.637C82.9878 100.637 83.1341 100.686 83.2324 100.637"  strokeLinecap="round"/>
</svg>
