<svg
                        viewBox="0 0 148 148"
                        className="w-10 h-10 fill-amber-400 group-hover:fill-amber-600 group-hover:stroke-gray-700 stroke-gray-500 animate-rotate-y transform-gpu -mb-2"
                        xmlns="http://www.w3.org/2000/svg"
                      >
<path d="M82.288 59.29C95.9521 34.5915 103.111 -2.39553 70.3168 10.7446C37.523 23.8847 68.503 91.7754 82.288 59.29Z"   strokeWidth="2"/>
<path d="M84.8936 101.812C83.741 75.9002 68.4399 51.1002 60.4105 87.1212C50.3738 132.147 86.6058 112.013 84.8936 101.812Z"   strokeWidth="2"/>
<path d="M84.4541 136.446C77.6459 143.292 74.9692 130.259 73.5138 122.886C71.0013 115.434 78.9136 111.142 83.2423 111.808C87.5711 112.474 92.9644 127.889 84.4541 136.446Z"   strokeWidth="2"/>
<path d="M66.1503 131.749C67.2933 122.761 67.71 107.656 60.2325 119.134C50.8857 133.481 65.5535 138.783 66.1503 131.749Z"   strokeWidth="2"/>
<path d="M42.506 90.4378C35.0071 85.6624 51.1169 78.4034 60.1091 75.3708C64.6833 73.648 63.6079 77.6768 62.4984 79.9066C58.9588 85.4067 50.0049 95.2132 42.506 90.4378Z"   strokeWidth="2"/>
<path d="M84.9358 72.6647C74.8511 72.2584 83.6074 88.3433 89.2462 96.4365C91.9817 100.71 97.3674 99.214 98.039 96.6041C98.9928 89.6788 95.0204 73.071 84.9358 72.6647Z"   strokeWidth="2"/>
<path d="M78.3527 53.3234C77.8374 55.2462 77.1661 56.8752 76.5308 57.9501C76.5018 57.999 76.4733 58.0463 76.4453 58.0917C76.4437 58.0383 76.4426 57.9832 76.442 57.9263C76.4292 56.6778 76.6624 54.9313 77.1776 53.0085C77.2466 52.7509 77.3155 52.4926 77.3842 52.2349C77.843 50.5144 78.2955 48.8179 78.7482 47.4839C78.7578 47.5675 78.7669 47.653 78.7753 47.7404C78.9357 49.4109 78.8386 51.5099 78.3527 53.3234ZM75.6631 59.057C75.6633 59.0561 75.6709 59.0506 75.6857 59.043C75.6704 59.054 75.663 59.0578 75.6631 59.057ZM76.6274 59.2953C76.6364 59.3093 76.6403 59.3179 76.64 59.3187C76.6397 59.3195 76.6352 59.3125 76.6274 59.2953ZM78.2531 45.4698C78.2536 45.4704 78.254 45.471 78.2545 45.4718C78.2469 45.4623 78.2466 45.4605 78.2531 45.4698Z"   strokeWidth="3"/>
<path d="M70.8606 55.6438C70.8374 56.8802 70.9887 57.9607 71.2238 58.6987C71.2868 58.8966 71.3511 59.0545 71.411 59.1767C71.4755 59.0568 71.5456 58.9014 71.616 58.7061C71.8786 57.9774 72.0703 56.9033 72.0935 55.6669C72.0967 55.4982 72.1001 55.3295 72.1035 55.1614C72.1271 53.9901 72.1501 52.8489 72.0877 51.9546C72.0793 51.8332 72.0695 51.7212 72.0586 51.6184C71.9423 51.8035 71.8214 52.0228 71.702 52.2729C71.2404 53.2403 70.882 54.4991 70.8606 55.6438ZM71.6077 59.4784C71.6077 59.4782 71.606 59.4766 71.6025 59.4739C71.606 59.4772 71.6077 59.4785 71.6077 59.4784ZM71.2086 59.4665C71.205 59.469 71.2032 59.4706 71.2032 59.4708C71.2032 59.4709 71.205 59.4697 71.2086 59.4665ZM71.8842 50.8012C71.8841 50.802 71.8876 50.8099 71.8955 50.8224C71.8884 50.8066 71.8844 50.8004 71.8842 50.8012ZM72.5626 51.0048C72.5655 51.0032 72.567 51.0023 72.567 51.0022C72.5671 51.0021 72.5656 51.0029 72.5626 51.0048Z"   strokeWidth="2"/>
<path d="M64.8765 63.353C64.9277 63.7626 65.3683 64.2442 65.5464 64.6449C65.683 64.9522 65.7774 65.3949 66.0153 65.6592C66.5186 66.2185 66.8151 67.0123 67.5081 67.42C68.0313 67.7277 68.6023 68.3993 69.2689 68.4344C69.8491 68.4649 70.3923 68.6066 70.9914 68.6066"  strokeLinecap="round"/>
<path d="M69.4439 68.9621C69.6728 69.168 69.9854 69.395 69.7856 69.3817C69.6359 69.3717 69.4052 69.0689 69.3359 68.9511C69.3354 68.9503 69.3349 68.9494 69.3344 68.9486C69.0453 68.9094 68.3326 68.6204 68.1493 68.3913C67.8436 68.0092 67.2585 67.8432 67.0344 67.3578C66.7913 66.831 66.2232 66.4148 65.8765 65.9319C65.7753 65.7909 65.6738 65.6497 65.5718 65.5084C64.8251 64.8465 64.12 64.1488 63.5895 63.353C63.0814 62.5909 62.4097 61.942 62.0153 61.1138C61.5532 60.1434 61.3278 59.0526 61.0679 58.0133C61.0515 57.9474 61.0361 57.8459 61.0197 57.7255C60.9734 57.6065 60.9247 57.4885 60.8718 57.3721C60.7899 57.1919 60.654 56.4266 60.6995 56.463C60.8876 56.6135 60.9605 57.2923 61.0197 57.7255C61.2702 58.3709 61.4459 59.0478 61.7952 59.6688C62.5315 60.9777 63.1248 62.3308 64.0727 63.5157C64.5896 64.1618 65.0857 64.8353 65.5718 65.5084C66.3619 66.2089 67.1986 66.8693 67.9244 67.5635C68.3508 67.9714 69.0334 68.4391 69.3344 68.9486C69.3416 68.9496 69.3484 68.9504 69.355 68.9511C69.385 68.9541 69.4146 68.9578 69.4439 68.9621Z" />
<path d="M62.8096 60.7693C62.8426 61.0667 63.2452 61.5214 63.422 61.7645C64.0251 62.5937 64.7129 63.4895 65.3981 64.2525C66.0472 64.9754 66.7061 65.6934 67.3359 66.4343C67.9786 67.1905 68.7075 67.9608 69.2689 68.7788C69.4186 68.997 70.0497 69.3993 69.7856 69.3817C69.6359 69.3717 69.4052 69.0689 69.3359 68.9511C69.0356 68.4406 68.3515 67.9721 67.9244 67.5635C66.5128 66.2133 64.6814 64.9909 63.5895 63.353C63.0814 62.5909 62.4097 61.942 62.0153 61.1138C61.5532 60.1434 61.3278 59.0526 61.0679 58.0133C60.9922 57.7102 60.9399 56.6553 60.6995 56.463C60.654 56.4266 60.7899 57.1919 60.8718 57.3721C61.2113 58.1192 61.3815 58.9332 61.7952 59.6688C62.5315 60.9777 63.1248 62.3308 64.0727 63.5157C64.6981 64.2974 65.293 65.1192 65.8765 65.9319C66.2232 66.4148 66.7913 66.831 67.0344 67.3578C67.2585 67.8432 67.8436 68.0092 68.1493 68.3913C68.3371 68.6261 69.0807 68.9236 69.355 68.9511C69.8101 68.9966 70.1788 69.2094 70.6469 69.2094"  strokeLinecap="round"/>
<path d="M72.7009 69.2569C73.5329 69.2569 74.3692 69.0171 75.1709 68.8048C75.9708 68.5931 76.5737 68.0102 77.2535 67.5658C77.8572 67.1711 78.4268 66.745 78.9769 66.2783C80.8103 64.7227 81.9334 62.3936 83.021 60.309C83.6187 59.1634 84.0157 57.8962 84.4134 56.6726C84.6365 55.9861 84.9257 55.3155 85.1237 54.6223C85.2444 54.2 85.6323 53.7103 85.6323 53.2742"  strokeLinecap="round"/>
<path d="M74.0085 69.7654C74.8468 69.7654 75.7897 69.2203 76.3979 68.6797C77.1297 68.0293 77.7616 67.1918 78.4159 66.464C79.2841 65.498 80.1255 64.5092 81.011 63.558C81.4797 63.0547 81.7845 62.4558 82.2138 61.9275C82.6717 61.3639 83.1108 60.6153 83.3802 59.9418C83.6284 59.3211 84.0206 58.781 84.2843 58.1578C84.4053 57.8717 84.6879 57.5144 84.6879 57.1973"  strokeLinecap="round"/>
<path d="M87.6664 49.7145C87.5444 49.8517 87.3962 50.0943 87.3435 50.2674C87.2505 50.5732 87.0775 50.8953 87.0126 51.2038C86.8991 51.7429 86.6471 52.2487 86.496 52.7778C86.1388 54.0278 85.2963 55.1307 84.9784 56.4022C84.5009 58.3124 83.4523 59.9385 82.3631 61.5723C81.1028 63.4628 79.6289 65.2348 78.0405 66.8232C77.4608 67.4029 76.8312 67.7527 76.1153 68.1107C75.0818 68.6274 73.9441 69.0389 72.7735 69.0389"  strokeLinecap="round"/>
<path d="M74.4444 69.6928C74.161 69.6928 74.9606 69.4189 75.2436 69.4022C75.628 69.3796 76.4194 68.9509 76.753 68.7484C77.2269 68.4607 77.704 68.1843 78.1656 67.8766C78.714 67.511 79.1125 66.9862 79.5702 66.5286C80.3202 65.7785 81.0522 64.9297 81.6043 64.0262C82.0901 63.2313 82.4897 62.4084 82.9443 61.5965C83.5346 60.5424 83.8153 59.1301 84.0703 57.9682C84.2498 57.1508 84.5875 56.3455 84.8493 55.5506C84.988 55.1292 85.269 54.6003 85.269 54.1461"  strokeLinecap="round"/>
<path d="M59.2609 54.4366C59.2609 55.2445 59.4207 56.3835 59.7695 57.1246C60.0078 57.631 60.1067 58.1654 60.4556 58.6139C60.7124 58.9442 60.9586 59.4808 61.1498 59.853C61.8294 61.1764 62.7331 62.365 63.8701 63.3159C65.1075 64.3508 66.5757 65.1008 67.9061 65.9877"  strokeLinecap="round"/>
<path d="M75.786 69.8156C75.6731 69.7278 75.5381 69.6024 75.3895 69.4636C75.3868 69.431 75.3864 69.399 75.3886 69.3678C75.3965 69.2582 75.9382 69.402 76.0005 69.412C76.484 69.4893 76.9977 69.9003 77.2998 70.2887C78.0284 71.2255 78.375 72.3421 78.8008 73.4267C78.9549 73.6072 79.1354 73.7906 79.1667 73.9785C79.2303 74.3601 79.5115 74.8731 79.6272 75.2778C79.6296 75.2863 79.6334 75.2971 79.6383 75.3096C79.67 75.375 79.702 75.4401 79.7344 75.5048C79.9477 75.9315 79.7018 75.4727 79.6383 75.3096C79.4437 74.9085 79.2611 74.4978 79.0784 74.092C78.9798 73.8728 78.8886 73.6505 78.8008 73.4267C78.7311 73.3452 78.6669 73.2642 78.6243 73.1837C78.2525 72.4814 77.7185 71.7888 77.2367 71.1465C76.8609 70.6454 76.2721 70.1937 75.786 69.8156Z" />
<path d="M74.0578 68.5289C74.644 68.6462 75.3675 69.4902 75.786 69.8156C76.2721 70.1937 76.8609 70.6454 77.2367 71.1465C77.7185 71.7888 78.2525 72.4814 78.6243 73.1837C78.7612 73.4423 79.1213 73.7057 79.1667 73.9785C79.2303 74.3601 79.5115 74.8731 79.6272 75.2778C79.6612 75.3968 79.9642 75.9644 79.7344 75.5048C79.5031 75.0423 79.2908 74.5639 79.0784 74.092C78.5017 72.8105 78.1787 71.4187 77.2998 70.2887C76.9977 69.9003 76.484 69.4893 76.0005 69.412C75.9382 69.402 75.3965 69.2582 75.3886 69.3678C75.3606 69.7598 75.7475 70.2683 75.9437 70.5914C76.5498 71.5897 77.2268 72.5641 77.8043 73.5748C78.5852 74.9412 79.4948 76.3899 80.4156 77.725"  strokeLinecap="round"/>
<path d="M76.9152 68.6481C76.9152 68.9969 77.1345 69.336 77.2735 69.6295C77.4467 69.9951 77.5987 70.3906 77.7487 70.7785C78.0506 71.5591 78.2928 72.3607 78.5276 73.162C78.6511 73.5834 78.7827 74.0084 78.9093 74.4356C78.9483 74.5672 79.0534 74.7155 79.0534 74.8524"  strokeLinecap="round"/>
<path d="M80.0349 75.0627C79.952 74.9487 79.9689 74.666 79.9473 74.5233C79.933 74.4291 79.907 74.3631 79.8927 74.2701C79.8572 74.0393 79.7975 73.8318 79.7564 73.6061C79.7145 73.3757 79.6584 73.1545 79.587 72.9323C79.5597 72.8473 79.572 72.7428 79.5364 72.6596C79.4718 72.5089 79.4606 72.3481 79.404 72.1923C79.339 72.0136 79.2393 71.7833 79.2287 71.5925C79.2198 71.4329 79.109 71.2705 79.0554 71.1212C78.9613 70.8592 78.8845 70.5523 78.7535 70.3092C78.6746 70.1625 78.6315 69.9867 78.5958 69.8262C78.5696 69.7083 78.4818 69.5967 78.4595 69.4738C78.4223 69.269 78.2915 69.0625 78.2083 68.8662C78.1391 68.703 78.1005 68.5206 77.9941 68.3754C77.8366 68.1607 77.8336 67.7975 77.5462 67.7017"  strokeLinecap="round"/>
<path d="M77.4761 68.5429C77.9184 69.1461 78.1246 69.8751 78.2842 70.5935C78.4101 71.16 78.6016 71.7126 78.7224 72.2818C78.8447 72.8584 78.981 73.4411 79.1235 74.0111"  strokeLinecap="round"/>
<path d="M66.3913 71.5833C65.9935 71.7705 65.6094 72.0684 65.2982 72.3797C64.9817 72.6961 64.4865 72.927 64.2557 73.3425C64.0441 73.7234 63.8074 74.0743 63.6403 74.4502C63.4661 74.8422 63.369 75.3084 63.2783 75.7315C63.1123 76.5065 62.8902 77.2568 62.7571 78.041C62.6886 78.4441 62.5215 78.8764 62.482 79.2717C62.4262 79.8294 62.2527 80.5119 62.0404 81.0309C61.7803 81.6666 61.6857 82.3887 61.4757 83.0434C61.4077 83.2556 61.3092 83.4882 61.3092 83.7022"  strokeLinecap="round"/>
<path d="M66.9777 71.6303C66.9374 71.8822 66.8721 72.1318 66.828 72.383C66.6365 72.8 66.5212 73.256 66.3551 73.7045C65.8739 75.0038 65.6009 76.4226 64.7335 77.5378C64.6305 77.6702 64.4909 78.0313 64.3389 78.0988C63.9779 78.2593 63.7368 78.6397 63.3942 78.83C62.9976 79.0503 62.7022 79.5726 62.3843 79.8906C62.3015 79.9734 62.2775 79.975 62.3662 79.8798C62.5848 79.6449 62.762 79.3546 62.9489 79.0943C63.5743 78.2233 64.0833 77.2884 64.69 76.412C65.2592 75.5899 65.7389 74.6659 66.1669 73.7624C66.4349 73.1967 66.5691 72.5965 66.7823 72.0104C66.8568 71.8054 67.0726 71.0374 66.9777 71.6303Z" />
<path d="M61.1789 83.5068C61.6296 82.8026 62.3171 82.3133 62.8078 81.6317C63.4807 80.6971 64.0688 79.6691 64.614 78.649C65.1671 77.6142 65.765 76.4696 66.1452 75.3551C66.415 74.564 66.7635 73.6528 66.7823 72.8068C66.7911 72.4105 66.9149 72.0232 66.9777 71.6303C67.0726 71.0374 66.8568 71.8054 66.7823 72.0104C66.5691 72.5965 66.4349 73.1967 66.1669 73.7624C65.7389 74.6659 65.2592 75.5899 64.69 76.412C64.0833 77.2884 63.5743 78.2233 62.9489 79.0943C62.762 79.3546 62.5848 79.6449 62.3662 79.8798C62.2775 79.975 62.3015 79.9734 62.3843 79.8906C62.7022 79.5726 62.9976 79.0503 63.3942 78.83C63.7368 78.6397 63.9779 78.2593 64.3389 78.0988C64.4909 78.0313 64.6305 77.6702 64.7335 77.5378C65.6009 76.4226 65.8739 75.0038 66.3551 73.7045C66.6014 73.0395 66.7359 72.3579 67.1732 71.8113C67.3912 71.5389 67.8472 71.3023 68.1505 71.1417C68.6554 70.8744 69.1157 70.4524 69.6238 70.1788C70.8722 69.5066 72.4909 69.4446 73.8191 69.8241"  strokeLinecap="round"/>
<path d="M58.8349 75.391C59.285 75.2528 59.7168 75.1443 60.1811 75.0644C60.6972 74.9755 61.2296 74.9111 61.7186 74.7146C62.0118 74.5968 62.3278 74.5739 62.6193 74.4573C62.9653 74.3189 63.3078 74.1746 63.6553 74.0399C63.9764 73.9154 64.3111 73.671 64.5626 73.4328C64.6477 73.3522 64.796 73.2754 64.8331 73.1639"  strokeLinecap="round"/>
<path d="M65.5755 72.3622C65.2361 72.4754 64.9051 72.6232 64.589 72.7912C64.2915 72.9492 63.9691 73.0971 63.6883 73.2828C63.3803 73.4863 63.0574 73.6631 62.7249 73.8238C62.2797 74.0391 61.8618 74.306 61.4101 74.5085C60.7604 74.7997 60.1046 75.0826 59.4701 75.4059C59.1679 75.5598 58.8431 75.7195 58.5231 75.8315C58.4172 75.8686 58.2935 75.9552 58.1817 75.9552"  strokeLinecap="round"/>
<path d="M59.7841 107.281C59.8156 107.565 60.0865 107.818 60.1558 108.095C60.2393 108.429 60.7567 108.98 60.99 109.231C61.5319 109.813 61.9014 110.546 62.4437 111.13C63.7665 112.555 65.6096 113.667 67.3416 114.533C68.2101 114.967 69.1493 115.533 70.154 115.533C70.3279 115.533 70.932 115.612 71.0089 115.458"  strokeLinecap="round"/>
<path d="M60.1558 109.586C60.3861 109.924 60.7864 110.19 61.118 110.432C61.7448 110.89 62.359 111.346 63.0714 111.667C63.8931 112.038 64.7818 112.291 65.5823 112.691C66.3149 113.058 67.1093 113.349 67.9239 113.53C68.4343 113.643 68.9526 113.897 69.4933 113.897C70.6249 113.897 71.7682 114.12 72.9004 114.12C73.3534 114.12 73.7997 114.076 74.1682 113.79C74.3105 113.679 74.5285 113.673 74.6514 113.509C74.7483 113.38 74.855 113.228 75.0231 113.228"  strokeLinecap="round"/>
<path d="M75.6178 113.228C75.2263 113.251 74.8649 113.586 74.4986 113.711C73.5801 114.026 72.5806 114.378 71.5995 114.413C70.6817 114.446 69.726 114.406 68.8119 114.327C68.4467 114.295 68.0323 114.286 67.6803 114.178C66.4971 113.814 65.3537 113.4 64.17 113.005"  strokeLinecap="round"/>
<path d="M59.4867 106.464C59.6384 106.501 59.9605 107.559 60.0814 107.744C60.2654 108.025 60.4499 108.38 60.6761 108.619C61.3379 109.32 61.995 109.976 62.6832 110.626C62.867 110.8 62.9972 110.968 63.2036 111.089C63.4219 111.217 63.7375 111.39 63.9304 111.535C64.1764 111.719 64.5622 111.854 64.8555 111.948C65.2531 112.076 65.6666 112.318 66.0655 112.406C67.4048 112.704 68.7453 113.005 70.0838 113.303C70.8454 113.472 71.6131 113.478 72.3759 113.596C72.7721 113.657 73.3961 113.502 73.7883 113.451C74.1839 113.4 74.6489 113.325 75.0231 113.191C75.5148 113.015 75.9215 112.705 76.3611 112.485"  strokeLinecap="round"/>
<path d="M76.4703 113.194C72.6333 113.194 71.879 119.063 73.4965 121.49"  strokeLinecap="round"/>
<path d="M83.5134 111.786C83.1804 112.082 82.738 111.862 82.3396 111.951C81.765 112.078 81.1452 112.223 80.5396 112.255C79.8073 112.294 78.9928 112.863 78.5049 113.351C77.5893 114.266 76.8215 115.26 75.879 116.203C75.2032 116.879 74.6472 118.361 74.5921 119.298C74.5219 120.492 73.966 121.829 73.966 123.055"  strokeLinecap="round"/>
<path d="M74.2456 121.765C74.2456 120.951 74.2456 120.136 74.2456 119.321C74.2456 118.819 74.3139 118.409 74.4898 117.94"  strokeLinecap="round"/>
<path d="M74.8153 126.933C74.8153 126.589 74.7339 126.245 74.7339 125.9C74.7339 125.52 74.7339 125.14 74.7339 124.761C74.7339 124.017 74.7339 123.273 74.7339 122.529C74.7339 121.991 74.7746 121.445 74.7746 120.913C74.7746 120.485 74.9921 120.054 75.0753 119.638C75.2117 118.956 75.4196 118.305 75.6066 117.637C75.7948 116.965 76.1753 116.277 76.5968 115.72C76.8011 115.45 77.0532 115.251 77.2705 114.994C77.3675 114.88 77.4824 114.837 77.6028 114.743C77.7753 114.609 77.9535 114.488 78.1431 114.377C78.3334 114.266 78.529 114.093 78.74 114.024C79.0073 113.938 79.32 113.727 79.5674 113.586C79.7361 113.489 79.9407 113.44 80.1281 113.391C80.9442 113.181 81.7501 113.22 82.5968 113.22C83.3394 113.22 83.9462 113.528 84.5207 113.975C85.22 114.519 85.7406 115.237 86.37 115.867C86.6815 116.178 86.9018 116.63 87.1454 116.995C87.3326 117.276 87.5257 117.561 87.6744 117.859"  strokeLinecap="round"/>
<path d="M63.5075 113.101C63.2657 113.101 62.9644 113.469 62.8396 113.66C62.4104 114.316 61.8331 114.856 61.3991 115.515C61.1251 115.931 60.9078 116.38 60.6657 116.814C60.2969 117.474 59.9063 118.125 59.5874 118.811C59.3084 119.411 59.0326 120.016 58.7951 120.633C58.5937 121.157 58.3604 121.667 58.2036 122.207C58.1255 122.476 58.0103 122.76 57.8893 123.002"  strokeLinecap="round"/>
<path d="M63.5861 113.651C63.3228 113.947 63.0987 114.328 62.8789 114.664C62.8111 114.767 62.7212 114.871 62.6825 114.987"  strokeLinecap="round"/>
<path d="M58.3316 51.7017C58.3316 52.2332 58.5482 52.6963 58.6555 53.2058C58.7159 53.4926 58.7842 53.8231 58.8707 54.0999C58.9526 54.3618 58.9733 54.6432 59.0903 54.8941C59.3086 55.3618 59.4804 55.845 59.7071 56.3117C59.9556 56.8234 60.2225 57.3222 60.4569 57.8424C60.5785 58.1122 60.7976 58.3508 60.9272 58.61"  strokeLinecap="round"/>
<path d="M57.493 49.5054C57.493 50.203 57.6311 50.8018 57.7925 51.4799C57.8705 51.8074 57.9068 52.1933 58.0432 52.5003C58.1486 52.7374 58.1883 53.0505 58.2495 53.3056C58.3178 53.59 58.4479 53.8606 58.4936 54.1575C58.5222 54.3438 58.6162 54.5216 58.66 54.7055C58.7127 54.9271 58.7975 55.1458 58.8907 55.3555C59.0585 55.7331 59.2748 56.1111 59.4098 56.4936C59.5556 56.9067 59.8306 57.4139 60.1086 57.7536C60.3486 58.047 60.5061 58.4262 60.732 58.7342C61.0942 59.2281 61.4907 59.6926 61.9255 60.1274"  strokeLinecap="round"/>
</svg>
