<svg
                        viewBox="0 0 148 148"
                        className="w-10 h-10 fill-amber-400 group-hover:fill-amber-600 group-hover:stroke-gray-700 stroke-gray-500 animate-rotate-y transform-gpu -mb-2"
                        xmlns="http://www.w3.org/2000/svg"
                      >
<path d="M72.2942 25.0889L97.9119 42.3525C99.7974 43.6231 100.588 46.006 99.8365 48.1519L90.2418 75.5416C89.5395 77.5463 87.6471 78.8885 85.5229 78.8885H53.4771C51.3529 78.8885 49.4605 77.5463 48.7582 75.5416L39.1635 48.1519C38.4118 46.006 39.2026 43.6231 41.0881 42.3525L66.7058 25.0889C68.3947 23.9507 70.6053 23.9507 72.2942 25.0889Z"  strokeWidth="2"/>
<path d="M66.6592 117.34C68.0995 118.843 70.4521 118.99 72.0685 117.678L89.7607 103.315C91.0979 102.229 91.59 100.41 90.9824 98.798L84.4934 81.5887C83.906 80.0311 82.4153 79 80.7506 79H58.5195C57.0144 79 55.6367 79.8448 54.9543 81.1863L48.2875 94.2914C47.5164 95.8071 47.788 97.6446 48.9645 98.8724L66.6592 117.34Z" />
<path d="M72.4382 115.901L90.1304 101.538C91.1333 100.724 91.5024 99.3595 91.0467 98.1508L84.5577 80.9416C84.1172 79.7733 82.9992 79 81.7506 79H59.5195C58.3907 79 57.3574 79.6336 56.8456 80.6397L50.1788 93.7448C49.6005 94.8816 49.8041 96.2597 50.6865 97.1806L68.3812 115.648C69.4615 116.775 71.2259 116.886 72.4382 115.901Z"  strokeWidth="2"/>
<path d="M99.3859 89.2513L107.715 91.1009C109.93 91.5925 111.292 93.8247 110.718 96.0187L109.475 100.767C109.12 102.122 108.082 103.193 106.738 103.59L96.9641 106.476C95.9822 106.766 94.9265 106.669 94.0144 106.204L90.1831 104.25C88.8434 103.567 88 102.191 88 100.687V95.0205C88 93.235 89.1834 91.6657 90.9001 91.1747L97.4189 89.3104C98.0594 89.1272 98.7356 89.1069 99.3859 89.2513Z"  strokeWidth="2"/>
<path d="M43.193 89.4665L39.5805 90.5706C37.6284 91.1673 36.4388 93.138 36.8201 95.1432L37.6135 99.315C37.867 100.648 38.7794 101.762 40.0368 102.273L44.4018 104.047C45.6607 104.559 47.0934 104.397 48.2058 103.616L49.2978 102.85C50.3648 102.101 51 100.879 51 99.5755V94.3302C51 92.6866 49.9946 91.2102 48.4652 90.6082L45.8274 89.5698C44.9862 89.2386 44.0576 89.2022 43.193 89.4665Z"  strokeWidth="2"/>
<path d="M56.8981 114.341L53.6186 118.279C52.5559 119.555 52.3921 121.355 53.207 122.802L55.6502 127.14C56.7192 129.038 59.1106 129.731 61.0293 128.7L66.5997 125.705C67.4151 125.267 68.0532 124.56 68.4052 123.704L69.2556 121.636C69.7657 120.395 69.6202 118.982 68.8681 117.871L66.2083 113.944C65.271 112.56 63.572 111.905 61.9481 112.301L59.0234 113.015C58.1913 113.218 57.4463 113.683 56.8981 114.341Z"  strokeWidth="2"/>
<path d="M81.1157 109.337L73.7197 114.899C72.486 115.827 71.8963 117.382 72.2044 118.895L73.0676 123.132L73.8394 125.996C74.3693 127.962 76.3975 129.123 78.361 128.582L83.0506 127.292C83.459 127.18 83.8469 127.003 84.2 126.769L90.1746 122.808C91.8294 121.71 92.4289 119.566 91.5829 117.769L89.0115 112.31C88.748 111.751 88.3584 111.26 87.8733 110.876L86.0004 109.396C84.5746 108.269 82.5682 108.245 81.1157 109.337Z"  strokeWidth="2"/>
<path d="M76.0628 57.2753L76.9958 57.2941C77.2877 57.3 77.5125 57.5537 77.4831 57.8443L76.78 64.8084L75.5603 57.8616C75.5058 57.5516 75.7481 57.2689 76.0628 57.2753Z"  strokeWidth="3"/>
<path d="M67.1528 58.4589L67.1226 59.0885L67.084 58.4593C67.0835 58.4507 67.0847 58.4474 67.0853 58.4457C67.0864 58.4427 67.0889 58.4381 67.0935 58.4334C67.0981 58.4286 67.1026 58.4259 67.1055 58.4247C67.1071 58.424 67.1105 58.4226 67.1191 58.4228C67.1269 58.4229 67.1303 58.4243 67.1321 58.4252C67.1351 58.4265 67.1393 58.4292 67.1435 58.4337C67.1477 58.4382 67.1501 58.4426 67.1513 58.4456C67.152 58.4476 67.1531 58.451 67.1528 58.4589Z"  strokeWidth="3"/>
<path d="M53 89C52.8848 89.1359 52.8549 89.3755 52.8171 89.545C52.7477 89.856 52.6508 90.1601 52.5854 90.4724C52.4718 91.0147 52.3234 91.5259 52.2629 92.0829C52.1627 93.0045 52 93.923 52 94.8552C52 95.276 52 95.6968 52 96.1176C52 96.5749 52.0841 97.0264 52.0976 97.4837C52.105 97.7352 52.1721 97.9742 52.1951 98.2242C52.2206 98.5017 52.2768 98.7715 52.3293 99.0438C52.3564 99.1845 52.4168 99.3108 52.439 99.4522C52.4529 99.5405 52.4719 99.634 52.5068 99.7153C52.5446 99.8037 52.6071 99.9139 52.6341 100"  strokeLinecap="round"/>
<path d="M87 109.759C86.0983 108.953 84.1805 108.932 83.0719 109.056C82.3802 109.133 81.6593 109.458 81.1583 109.961C80.2569 110.866 79.1312 111.338 78.1311 112.091C77.4471 112.606 76.7283 113.309 76.0216 113.727C75.3079 114.148 74.9098 114.932 74.3094 115.475C74.007 115.748 73.3481 116.65 73.3022 117.043C73.2654 117.357 73.1446 117.692 73.0951 118.015C73.0047 118.606 73 119.174 73 119.774C73 120.54 73.4029 121.24 73.4029 122"  strokeLinecap="round"/>
<path d="M77 113C76.4066 113.575 75.8383 114.394 75.4186 115.077C74.9986 115.76 74.1113 116.313 73.9073 117.104C73.827 117.416 73.6232 117.654 73.5502 118C73.4573 118.44 73.2142 118.852 73.1038 119.28C72.874 120.171 73.0975 121.127 73.0975 122"  strokeLinecap="round"/>
<path d="M97.0621 43.3916C96.4289 42.7718 95.5957 42.4371 94.7607 42.1446C95.0308 42.4896 95.2945 42.8394 95.5527 43.1922C95.6562 43.3336 95.7589 43.4756 95.8608 43.6179C95.8624 43.6195 95.864 43.621 95.8656 43.6226C96.1311 43.8792 96.4516 44.1175 96.638 44.4486C97.1373 45.3355 97.458 46.2467 97.8207 47.1997C98.4622 48.8851 98.4307 50.5314 98.2414 52.2819C98.1538 53.0925 98.0552 54.0031 97.8069 54.788C97.6931 55.148 97.6461 55.6017 97.4966 55.9431C97.3857 56.1963 97.4483 55.5271 97.4483 55.4461C97.4483 53.8576 97.9101 52.287 97.9449 50.6999C97.9616 49.9355 97.9683 49.2336 97.8828 48.4528C97.7173 46.9407 97.0819 45.3568 96.2208 44.1266C96.1018 43.9566 95.9819 43.787 95.8608 43.6179C95.6022 43.3673 95.3475 43.0765 95.0783 42.8068C94.8312 42.6136 94.5809 42.4214 94.345 42.2085C94.3266 42.1919 94.3083 42.1753 94.2899 42.1587C94.1229 42.0355 93.9921 41.9057 93.8604 41.7629C93.3696 41.3034 92.8951 40.8348 92.4209 40.3534C92.0817 40.0092 91.63 39.6865 91.3623 39.2789C91.2791 39.1523 91.0229 38.9425 90.8968 38.8694C90.7703 38.796 90.7067 38.6831 90.5934 38.6174C90.4322 38.5239 90.1012 38.2164 89.9727 38.0503C89.7636 37.7801 89.5032 37.5807 89.2693 37.3433C89.1796 37.2523 89.1113 37.1736 89.0348 37.0738C88.8438 36.8245 89.499 37.284 89.5555 37.3188C90.2951 37.7746 90.899 38.3609 91.6002 38.8694C92.0033 39.1616 92.3735 39.4512 92.7243 39.8074C93.0716 40.1599 93.4072 40.5243 93.7327 40.8977C93.9705 41.0013 94.2193 41.1321 94.2864 41.169C94.9651 41.5422 95.634 41.9111 96.2828 42.3345C96.4549 42.4468 96.6742 42.5111 96.8277 42.6495C96.977 42.7842 97.1564 42.969 97.3242 43.0765C97.5685 43.2332 97.7298 43.5542 97.9414 43.7556C98.2407 44.0403 98.4832 44.5355 98.5621 44.9491C98.7637 46.0065 99 46.9776 99 48.0678C99 49.6163 98.8802 51.0709 98.5069 52.5864C98.4915 52.6489 98.4664 52.7498 98.4414 52.8535V53.0135C98.4414 53.0876 98.4088 53.1294 98.3828 53.1955C98.3305 53.3282 98.3858 53.0839 98.4414 52.8535V51.9074C98.4414 50.3917 98.2853 48.915 98.1449 47.4097C98.092 46.843 98.0069 46.2433 98.0069 45.6737C98.0069 45.4075 97.8605 45.1761 97.8242 44.9176C97.7572 44.4417 97.4106 43.7326 97.0621 43.3916Z" />
<path d="M94.0346 41.8935C95.0927 42.2661 96.2443 42.591 97.0621 43.3916C97.4106 43.7326 97.7572 44.4417 97.8242 44.9176C97.8605 45.1761 98.0069 45.4075 98.0069 45.6737C98.0069 46.2433 98.092 46.843 98.1449 47.4097C98.2853 48.915 98.4414 50.3917 98.4414 51.9074C98.4414 52.2761 98.4414 52.6448 98.4414 53.0135C98.4414 53.0876 98.4088 53.1294 98.3828 53.1955C98.3069 53.3879 98.4574 52.7876 98.5069 52.5864C98.8802 51.0709 99 49.6163 99 48.0678C99 46.9776 98.7637 46.0065 98.5621 44.9491C98.4832 44.5355 98.2407 44.0403 97.9414 43.7556C97.7298 43.5542 97.5685 43.2332 97.3242 43.0765C97.1564 42.969 96.977 42.7842 96.8277 42.6495C96.6742 42.5111 96.4549 42.4468 96.2828 42.3345C95.634 41.9111 94.9651 41.5422 94.2864 41.169C94.121 41.078 92.8504 40.4163 93.3657 40.9975C93.4963 41.1447 93.518 41.3833 93.6622 41.5435C93.9044 41.8123 94.0907 42.0336 94.407 42.24C94.9512 42.5951 95.4018 43.1742 95.8656 43.6226C96.1311 43.8792 96.4516 44.1175 96.638 44.4486C97.1373 45.3355 97.458 46.2467 97.8207 47.1997C98.4622 48.8851 98.4307 50.5314 98.2414 52.2819C98.1538 53.0925 98.0552 54.0031 97.8069 54.788C97.6931 55.148 97.6461 55.6017 97.4966 55.9431C97.3857 56.1963 97.4483 55.5271 97.4483 55.4461C97.4483 53.8576 97.9101 52.287 97.9449 50.6999C97.9616 49.9355 97.9683 49.2336 97.8828 48.4528C97.7173 46.9407 97.0819 45.3568 96.2208 44.1266C95.1628 42.6152 94.0259 41.1286 92.7243 39.8074C92.3735 39.4512 92.0033 39.1616 91.6002 38.8694C90.899 38.3609 90.2951 37.7746 89.5555 37.3188C89.499 37.284 88.8438 36.8245 89.0348 37.0738C89.1113 37.1736 89.1796 37.2523 89.2693 37.3433C89.5032 37.5807 89.7636 37.7801 89.9727 38.0503C90.1012 38.2164 90.4322 38.5239 90.5934 38.6174C90.7067 38.6831 90.7703 38.796 90.8968 38.8694C91.0229 38.9425 91.2791 39.1523 91.3623 39.2789C91.63 39.6865 92.0817 40.0092 92.4209 40.3534C93.0494 40.9914 93.6782 41.6069 94.345 42.2085C94.7588 42.5819 95.217 42.8918 95.6242 43.255C95.8405 43.4479 96.0828 43.7835 96.3311 43.9096"  strokeLinecap="round"/>
<path d="M48.0813 90.7565C49.0523 90.9507 49.3623 92.3921 49.7568 93.1021C50.2385 93.9693 50.0918 95.2112 50.0918 96.1849C50.0918 98.2308 50.8078 101.165 49.1536 102.82"  strokeLinecap="round"/>
<path d="M94.3581 90.3085C93.3805 90.6469 92.4403 91.1151 91.5378 91.6165C91.169 91.8214 90.8419 92.1202 90.564 92.4356C90.474 92.5378 90.3814 92.6354 90.2852 92.7316C90.2421 92.7747 90.2204 92.8499 90.1802 92.8844C89.9731 93.0619 89.8194 93.4417 89.7525 93.7092C89.6814 93.9936 89.5448 94.2732 89.4584 94.557C89.3142 95.0309 89.1891 95.484 89.0651 95.9605C88.8312 96.859 88.7296 97.7465 88.6259 98.668C88.589 98.9964 88.589 99.3187 88.5839 99.6495C88.5778 100.049 88.4969 100.468 88.5572 100.868C88.5922 101.1 88.5759 101.35 88.645 101.574C88.6687 101.651 88.6541 101.823 88.7214 101.857"  strokeLinecap="round"/>
<path d="M45.0666 39.9121C44.7213 40.2575 44.3686 40.5971 44.0287 40.95C43.8967 41.0871 43.7689 41.2323 43.614 41.3464C43.5434 41.3984 43.3799 41.5103 43.3382 41.5834C43.3108 41.6313 43.1316 41.7496 43.0807 41.7795C42.9983 41.828 42.948 41.9168 42.8601 41.9634C42.7348 42.0297 42.6313 42.1929 42.523 42.2862C42.3758 42.413 42.2161 42.5241 42.0694 42.6519C41.9206 42.7815 41.8125 42.9489 41.6628 43.0728C40.792 43.7935 40.2207 44.6341 39.8445 45.7063C39.6347 46.3043 39.5027 46.8397 39.4195 47.4695C39.343 48.0491 39.3616 48.6364 39.3664 49.2205C39.3686 49.4957 39.4044 49.7722 39.4318 50.0459C39.4425 50.153 39.3829 50.4934 39.4767 50.5403"  strokeLinecap="round"/>
<path d="M40.4329 51.3126C40.4144 51.1282 40.3447 50.9353 40.3082 50.7528C40.246 50.4416 40.2325 50.1186 40.1754 49.8048C40.0919 49.3453 40.0149 48.8886 39.9936 48.4196C39.9337 47.1016 40.5088 45.7613 41.1234 44.6276C41.3735 44.1663 41.7256 43.6573 42.0878 43.275C42.6144 42.7191 43.0283 42.0687 43.5792 41.5282C44.7103 40.4185 45.9628 39.4227 47.2364 38.4778"  strokeLinecap="round"/>
</svg>
