<svg
                        viewBox="0 0 148 148"
                        className="w-10 h-10 fill-amber-400 group-hover:fill-amber-600 group-hover:stroke-gray-700 stroke-gray-500 animate-rotate-y transform-gpu -mb-2"
                        xmlns="http://www.w3.org/2000/svg"
                      >
<path d="M114.309 64.3596C113.747 62.4898 112.845 60.6439 111.601 58.8557C109.337 55.5991 105.991 52.6034 101.722 50.0601C97.4546 47.5177 92.3677 45.4893 86.7465 44.1022C81.1265 42.7154 75.0955 42 69 42C62.9045 42 56.8735 42.7154 51.2534 44.1022C45.6323 45.4893 40.5454 47.5177 36.2778 50.0601C32.0086 52.6034 28.663 55.5991 26.3987 58.8557C25.962 59.4838 25.5121 60.1002 25.0659 60.7116C24.0793 62.0635 23.1105 63.3909 22.3418 64.7655C21.8747 65.6007 22.012 66.3419 22.4733 66.9164C22.9674 67.5319 23.8853 68 25 68H69H111C112.112 68 113.104 67.5388 113.727 66.8547C114.335 66.1872 114.595 65.3136 114.309 64.3596Z"   strokeWidth="2"/>
<path d="M119.655 100.402C119.108 98.4758 118.394 96.5827 117.519 94.7389C115.219 89.8949 111.843 85.4839 107.577 81.7622C103.31 78.0402 98.2376 75.0817 92.6463 73.0614C87.0549 71.041 81.0584 70 75 70C68.9416 70 62.9451 71.041 57.3537 73.0614C51.7624 75.0817 46.69 78.0402 42.4233 81.7622C38.1569 85.4839 34.7811 89.8949 32.481 94.7389C32.0518 95.6428 31.6152 96.5183 31.179 97.3931C30.6152 98.5237 30.052 99.6531 29.506 100.841C28.5176 102.992 28.9227 104.98 30.1362 106.46C31.3745 107.97 33.5046 109 36 109H75H112C114.492 109 116.753 107.97 118.209 106.381C119.651 104.807 120.307 102.692 119.655 100.402Z"   strokeWidth="2"/>
<path d="M133.261 89.9334C132.774 88.3321 132.064 86.8927 131.183 85.6924C130.301 84.4922 129.271 83.5623 128.162 82.9367C127.055 82.3124 125.886 82 124.719 82C123.551 82 122.382 82.3124 121.276 82.9367C120.166 83.5623 119.136 84.4922 118.255 85.6924C117.373 86.8927 116.664 88.3321 116.177 89.9334C115.828 91.0802 116.08 92.0694 116.665 92.7781C117.26 93.4998 118.261 94 119.518 94H124.719H129.566C130.798 94 131.907 93.4878 132.607 92.723C133.291 91.9751 133.584 90.9961 133.261 89.9334Z"   strokeWidth="2"/>
<path d="M32.2848 93.1515C31.8132 91.9332 31.1235 90.8305 30.2581 89.9047C29.3929 88.9789 28.3694 88.2485 27.248 87.7516C26.1269 87.2547 24.9278 87 23.7187 87C22.5097 87 21.3106 87.2547 20.1895 87.7516C19.0681 88.2485 18.0446 88.9789 17.1794 89.9047C16.314 90.8305 15.6243 91.9332 15.1527 93.1515C14.8325 93.9785 14.9866 94.6555 15.3588 95.1297C15.7462 95.6234 16.4549 96 17.4107 96H23.7188H29.694C30.6142 96 31.4324 95.6119 31.923 95.0615C32.3927 94.5345 32.5638 93.8722 32.2848 93.1515Z"   strokeWidth="2"/>
<path d="M46.9312 126.315C48.1474 125.838 49.2472 125.144 50.1693 124.275C51.0913 123.406 51.8173 122.379 52.3095 121.255C52.8015 120.132 53.0511 118.932 53.0459 117.723C53.0407 116.514 52.7809 115.316 52.2792 114.197C51.7774 113.078 51.0426 112.057 50.1132 111.196C49.1837 110.335 48.078 109.65 46.8577 109.183C46.0293 108.867 45.353 109.024 44.8804 109.398C44.3884 109.787 44.0148 110.498 44.0189 111.454L44.046 117.762L44.0716 123.737C44.0755 124.657 44.4672 125.473 45.0196 125.962C45.5487 126.429 46.2117 126.597 46.9312 126.315Z"   strokeWidth="2"/>
<path d="M99.1753 122.906C100.176 122.558 101.087 122.033 101.857 121.365C102.626 120.697 103.24 119.9 103.667 119.021C104.094 118.143 104.326 117.198 104.355 116.24C104.383 115.282 104.206 114.326 103.832 113.424C103.458 112.521 102.892 111.689 102.163 110.977C101.434 110.265 100.556 109.687 99.5768 109.281C98.9519 109.021 98.4506 109.129 98.0986 109.39C97.7273 109.665 97.4187 110.191 97.3968 110.936L97.2467 116.031L97.1046 120.853C97.0835 121.568 97.3669 122.207 97.7733 122.592C98.1575 122.956 98.6373 123.093 99.1753 122.906Z"   strokeWidth="2"/>
<path d="M79.3948 69.6042H81.7083C82.22 69.6024 82.7311 69.5981 83.2419 69.5888C84.5541 69.5151 85.8342 69.2023 87.1648 69.2023C88.0869 69.2023 88.9819 68.9834 89.8144 68.9344C90.069 68.9194 90.2385 68.842 89.9483 68.9642C89.3413 69.2198 88.486 69.229 87.8347 69.3065C86.3012 69.4891 84.773 69.5611 83.2419 69.5888C83.0667 69.5987 82.8908 69.6042 82.7142 69.6042H81.7083C80.9389 69.607 80.1681 69.6042 79.3948 69.6042Z" />
<path d="M59.6721 68.5325C61.3474 68.5325 63.0011 68.8004 64.6735 68.8004C65.373 68.8004 66.0577 68.9233 66.7574 68.9344C67.16 68.9408 67.6519 68.8559 68.0301 69.0014C68.7581 69.2814 69.7431 68.9485 70.4489 69.2693C70.8357 69.4451 71.4402 69.3363 71.863 69.3363C73.2526 69.3363 74.6541 69.6042 76.068 69.6042C78.2834 69.6042 80.4988 69.6042 82.7142 69.6042C84.213 69.6042 85.6565 69.2023 87.1648 69.2023C88.0869 69.2023 88.9819 68.9834 89.8144 68.9344C90.069 68.9194 90.2385 68.842 89.9483 68.9642C89.3413 69.2198 88.486 69.229 87.8347 69.3065C85.0204 69.6416 82.2236 69.6042 79.3948 69.6042C78.5889 69.6042 77.8119 69.6042 77.0356 69.6042C76.4444 69.6042 78.1912 69.3539 78.7697 69.2321C79.5564 69.0665 80.3986 69.1091 81.1959 68.9642C82.4397 68.738 83.7796 68.4648 85.0437 68.406C85.8949 68.3664 86.6975 68.1306 87.537 68.1306"  strokeLinecap="round"/>
<path d="M89.1446 68.1306C88.4745 68.5075 87.5125 68.4552 86.763 68.5623C85.6315 68.7239 84.5319 68.9064 83.3915 69.0014C80.8117 69.2164 78.207 68.9917 75.6215 69.1354C74.786 69.1818 73.4815 69.4007 72.6668 69.0386C72.3093 68.8797 71.8486 68.8004 71.4611 68.8004"  strokeLinecap="round"/>
<path d="M49.8927 68.3985C50.9694 68.3985 52.046 68.3985 53.1227 68.3985C53.9884 68.3985 54.7652 68.6503 55.6383 68.6665C57.451 68.7 59.2196 69.4703 61.0788 69.4703C63.3501 69.4703 65.6158 70.2741 67.8738 70.2741C69.9966 70.2741 72.1674 70.2741 74.2744 70.2741C75.3238 70.2741 76.3732 70.2741 77.4226 70.2741C78.2041 70.2741 79.3808 70.3562 80.1168 70.0731C80.6901 69.8526 81.4934 70.0061 82.1114 70.0061C82.596 70.0061 83.0749 69.8722 83.585 69.8722C84.3881 69.8722 85.1517 69.6474 85.9294 69.6042C88.3294 69.4709 90.6603 69.0819 93.0295 68.7335C93.9348 68.6003 94.9774 68.3985 95.8949 68.3985C96.4965 68.3985 97.0893 68.1306 97.7183 68.1306"  strokeLinecap="round"/>
<path d="M60.476 68.3986C61.1925 68.112 62.3947 68.1797 63.1404 68.2944C63.8176 68.3986 64.9329 68.1507 65.4997 68.4656C66.3787 68.9539 67.7124 68.5764 68.5734 69.0684C68.942 69.279 67.651 69.4009 67.6357 69.4033C66.7136 69.5521 65.7374 69.4447 64.8224 69.3066C64.079 69.1944 63.3007 69.2948 62.5673 69.1354C62.142 69.0429 61.8576 68.9345 61.4137 68.9345"  strokeLinecap="round"/>
<path d="M30.6059 91.2227C30.6811 91.8245 31.0916 92.2287 31.0916 92.9317C31.0916 93.7057 31.0649 94.6707 30.6869 95.3513C29.9507 96.6764 29.7964 98.2444 29.7964 99.8036"  strokeLinecap="round"/>
<path d="M28.625 88.7399C29.1613 89.2762 29.7879 89.8971 29.9507 90.6644C30.0218 90.9998 30.1103 91.3624 30.1289 91.6977C30.1492 92.0632 30.0807 92.505 30.2041 92.8507C30.2773 93.0557 30.2292 93.341 30.2292 93.5553C30.2292 93.9326 30.2793 94.3208 30.2793 94.7056C30.2793 94.9688 30.2292 95.2162 30.2292 95.4799C30.2292 95.7356 30.1289 95.9709 30.1289 96.2207C30.1289 96.516 30.0157 96.8523 29.9395 97.1398C29.8868 97.3392 29.8508 97.5517 29.7502 97.7386C29.5522 98.1062 29.504 98.5814 29.4299 98.9891C29.3624 99.3604 29.324 99.7171 29.1653 100.07C29.0097 100.416 28.9258 100.898 28.9258 101.273"  strokeLinecap="round"/>
<path d="M116.814 87.179C116.79 87.28 116.747 87.4243 116.688 87.5838C116.558 87.6347 116.389 87.6547 116.211 87.6574C116.145 87.7124 116.076 87.7614 116.007 87.7921C115.634 87.9577 114.942 87.9082 114.526 87.9082C114.037 87.9082 112.945 88.1327 112.774 87.534C112.697 87.2653 112.197 86.4626 112.79 86.8306C113.56 87.3082 114.328 87.5026 115.204 87.5727C115.384 87.5871 115.82 87.6635 116.211 87.6574C116.282 87.5978 116.349 87.531 116.407 87.4727C116.53 87.3503 116.763 87.1601 116.785 86.979C116.82 86.6833 116.852 87.0201 116.814 87.179Z" />
<path d="M113.997 87.9663C114.047 87.9725 114.292 88.3166 114.358 88.3858C114.5 88.5326 114.668 88.6632 114.897 88.6632C115.246 88.6632 115.577 88.7054 115.914 88.6632C116.341 88.6098 116.721 87.5695 116.814 87.179C116.852 87.0201 116.82 86.6833 116.785 86.979C116.763 87.1601 116.53 87.3503 116.407 87.4727C116.295 87.5848 116.151 87.7281 116.007 87.7921C115.634 87.9577 114.942 87.9082 114.526 87.9082C114.037 87.9082 112.945 88.1327 112.774 87.534C112.697 87.2653 112.197 86.4626 112.79 86.8306C113.56 87.3082 114.328 87.5026 115.204 87.5727C115.527 87.5985 116.669 87.8227 116.901 87.4178C116.95 87.3314 117.089 87.2117 117.162 87.1532C117.396 86.9659 117.581 86.7494 117.785 86.5273C117.857 86.4485 117.977 86.3106 118.017 86.2111C118.064 86.0934 118.639 85.3488 118.327 85.527C118.098 85.6577 117.879 86.1046 117.714 86.3111C117.552 86.5137 117.151 86.5803 116.946 86.7338C116.745 86.8847 116.328 86.8909 116.088 86.9919C115.775 87.1235 115.41 87.1053 115.078 87.1565C114.581 87.2329 114.047 87.2227 113.578 87.0371C113.262 86.9123 112.95 86.8396 112.639 86.7176C112.457 86.6465 112.111 86.5764 112.022 86.3982"  strokeLinecap="round"/>
<path d="M50.9887 112.408C51.1147 112.611 51.2249 112.811 51.3163 112.994C51.4397 113.241 51.171 112.999 51.1194 112.917C50.9708 112.679 50.7185 112.465 50.5203 112.266C50.5132 112.259 50.5062 112.252 50.4991 112.245C48.8845 111.737 47.326 111.453 45.6327 111.453C45.3279 111.453 44.9873 111.466 44.7083 111.59C44.6083 111.635 44.4345 111.761 44.3231 111.761C43.821 111.761 44.446 110.883 44.5585 110.798C45.1228 110.375 45.9944 110.557 46.6342 110.606C47.2446 110.653 48.0896 110.879 48.6372 111.145C49.2759 111.456 49.9819 111.74 50.4991 112.245C50.6171 112.283 50.7354 112.321 50.8541 112.361C50.9003 112.376 50.9451 112.392 50.9887 112.408Z" />
<path d="M44.169 111.145C44.169 110.546 45.2413 110.375 45.667 110.375C46.9739 110.375 48.3072 110.377 49.5145 110.914C50.2843 111.256 50.9506 112.263 51.3163 112.994C51.4397 113.241 51.171 112.999 51.1194 112.917C50.9708 112.679 50.7185 112.465 50.5203 112.266C50.0013 111.747 49.2847 111.46 48.6372 111.145C48.0896 110.879 47.2446 110.653 46.6342 110.606C45.9944 110.557 45.1228 110.375 44.5585 110.798C44.446 110.883 43.821 111.761 44.3231 111.761C44.4345 111.761 44.6083 111.635 44.7083 111.59C44.9873 111.466 45.3279 111.453 45.6327 111.453C47.4498 111.453 49.1117 111.78 50.8541 112.361C51.7759 112.668 52.1705 113.204 52.566 113.995"  strokeLinecap="round"/>
<path d="M100.791 109.99C100.5 109.957 100.276 109.835 99.9606 109.835C99.7097 109.835 99.5018 109.846 99.2844 109.908C98.5773 110.11 98.3 110.816 98.0946 111.483C97.5896 113.125 97.3243 115.006 97.3243 116.769"  strokeLinecap="round"/>
<path d="M101.407 110.529C100.779 110.529 99.9893 110.491 99.5584 111.03C99.3494 111.291 99.1609 111.461 99.002 111.761C98.8472 112.054 98.8087 112.515 98.5997 112.754C98.4385 112.938 98.3002 113.415 98.2102 113.649C97.9725 114.267 97.7377 114.86 97.5725 115.502C97.3692 116.293 97.1702 117.211 97.1702 118.001"  strokeLinecap="round"/>
<path d="M100.791 109.758C100.069 109.928 99.1419 110.134 98.651 110.76C98.3137 111.19 98.1861 111.795 98.0176 112.301"  strokeLinecap="round"/>
<path d="M102.255 110.991C101.974 110.991 101.666 111.04 101.407 110.931C101.298 110.885 100.982 110.88 100.868 110.931C100.639 111.033 100.182 111.135 100.021 111.338C99.8483 111.553 99.5339 111.666 99.3871 111.915C99.1829 112.263 98.924 112.559 98.7409 112.925C98.3102 113.787 98.1078 114.604 97.8464 115.519C97.6681 116.143 97.6226 116.819 97.5511 117.462C97.5107 117.826 97.5169 118.198 97.4741 118.562C97.448 118.784 97.4478 119.126 97.3243 119.311"  strokeLinecap="round"/>
<mask id="path-22-inside-1_21_29" >
<ellipse cx="38.4561" cy="60.475" rx="1.47539" ry="3.50465" transform="rotate(1.12568 38.4561 60.475)"/>
</mask>
<ellipse cx="38.4561" cy="60.475" rx="1.47539" ry="3.50465" transform="rotate(1.12568 38.4561 60.475)" />
<path d="M36.9317 60.445C36.9186 61.1122 36.79 61.5725 36.7089 61.7551C36.6656 61.8524 36.6953 61.738 36.8825 61.5572C37.0813 61.3651 37.6162 60.9632 38.4461 60.9795L38.3283 66.9784C39.5655 67.0027 40.4924 66.4123 41.0511 65.8726C41.5983 65.344 41.9559 64.7228 42.192 64.1913C42.6697 63.1161 42.9057 61.8309 42.9306 60.5629L36.9317 60.445ZM38.4461 60.9795C39.2761 60.9958 39.7948 61.4185 39.9859 61.6182C40.1659 61.8062 40.191 61.9217 40.1516 61.8227C40.0777 61.6371 39.9673 61.1721 39.9804 60.5049L33.9815 60.3871C33.9566 61.6551 34.1419 62.9486 34.577 64.0416C34.7921 64.582 35.125 65.2168 35.651 65.7665C36.1881 66.3277 37.091 66.9541 38.3283 66.9784L38.4461 60.9795ZM39.9804 60.5049C39.9935 59.8378 40.1221 59.3775 40.2033 59.1949C40.2465 59.0976 40.2169 59.2119 40.0296 59.3928C39.8308 59.5848 39.2959 59.9867 38.466 59.9704L38.5838 53.9716C37.3466 53.9473 36.4197 54.5377 35.861 55.0774C35.3139 55.6059 34.9563 56.2272 34.7201 56.7587C34.2424 57.8338 34.0064 59.119 33.9815 60.3871L39.9804 60.5049ZM38.466 59.9704C37.636 59.9541 37.1173 59.5315 36.9262 59.3318C36.7462 59.1437 36.7211 59.0283 36.7605 59.1272C36.8344 59.3129 36.9449 59.7779 36.9317 60.445L42.9306 60.5629C42.9555 59.2949 42.7702 58.0014 42.3351 56.9083C42.12 56.368 41.7871 55.7331 41.2611 55.1835C40.724 54.6222 39.8211 53.9959 38.5838 53.9716L38.466 59.9704Z" fill="black" mask="url(#path-22-inside-1_21_29)"/>
<mask id="path-24-inside-2_21_29" >
<ellipse cx="43.7597" cy="59.9055" rx="1.58902" ry="5.15343" transform="rotate(7.40951 43.7597 59.9055)"/>
</mask>
<ellipse cx="43.7597" cy="59.9055" rx="1.58902" ry="5.15343" transform="rotate(7.40951 43.7597 59.9055)" />
<path d="M42.3605 59.7235C42.2046 60.9225 41.9249 61.8708 41.6751 62.4177C41.5423 62.7085 41.4881 62.7306 41.5846 62.6289C41.626 62.5853 42.2945 61.8865 43.482 62.0409L42.7082 67.9908C44.3308 68.2018 45.4511 67.2709 45.9367 66.7592C46.4775 66.1893 46.8603 65.5071 47.1328 64.9102C47.6939 63.6817 48.0993 62.1207 48.3104 60.4973L42.3605 59.7235ZM43.482 62.0409C44.6694 62.1953 45.137 63.0419 45.1658 63.0946C45.2331 63.2176 45.1864 63.1824 45.1324 62.8673C45.0308 62.2747 45.003 61.2864 45.1589 60.0874L39.209 59.3137C38.9979 60.9371 38.9905 62.5499 39.2186 63.881C39.3295 64.5278 39.525 65.2852 39.9021 65.9744C40.2407 66.5933 41.0856 67.7798 42.7082 67.9908L43.482 62.0409ZM45.1589 60.0874C45.3148 58.8885 45.5945 57.9401 45.8443 57.3933C45.9771 57.1024 46.0312 57.0804 45.9347 57.182C45.8934 57.2256 45.2249 57.9244 44.0374 57.77L44.8111 51.8201C43.1885 51.6091 42.0683 52.54 41.5826 53.0518C41.0418 53.6216 40.6591 54.3038 40.3865 54.9007C39.8254 56.1292 39.4201 57.6902 39.209 59.3137L45.1589 60.0874ZM44.0374 57.77C42.8499 57.6156 42.3824 56.769 42.3535 56.7163C42.2862 56.5933 42.3329 56.6285 42.387 56.9436C42.4885 57.5362 42.5164 58.5245 42.3605 59.7235L48.3104 60.4973C48.5215 58.8738 48.5289 57.2611 48.3007 55.9299C48.1898 55.2832 47.9943 54.5258 47.6173 53.8366C47.2786 53.2176 46.4338 52.0311 44.8111 51.8201L44.0374 57.77Z" fill="black" mask="url(#path-24-inside-2_21_29)"/>
</svg>
