<svg width="148" height="148" viewBox="0 0 148 148" fill="none" xmlns="http://www.w3.org/2000/svg">
<rect width="148" height="148" />
<path d="M66.4967 68.7784C64.3743 68.7784 60.6181 68.0397 58.7127 68.8865C56.7004 69.7808 55.806 71.0739 54.4424 72.7785C53.2616 74.2544 54.8208 78.3797 54.8208 79.9679C54.8208 82.5788 54.8273 85.0444 55.2802 87.5356C55.7193 89.9507 55.3073 92.8326 55.3073 95.2926C55.3073 97.0909 55.3098 100.775 55.8208 102.563C57.383 108.031 68.452 102.408 71.8482 101.482C76.7691 100.14 106.421 88.3354 93.2812 80.6706C87.3059 77.185 80.313 75.97 73.9834 73.1569C69.5927 71.2054 64.9707 68.2919 60.1722 68.2919"  strokeWidth="3" strokeLinecap="round"/>
<path d="M97.1462 83.8598C97.1462 81.3704 103.483 76.4322 105.687 75.6974C109.277 74.5007 112.066 71.0576 115.876 70.2108C118.735 69.5757 121.348 67.8521 124.39 69.373C127.178 70.7669 127.422 74.8906 128.525 77.3191C129.771 80.0586 129.742 84.9553 129.742 87.9951C129.742 89.86 129.742 91.7249 129.742 93.5898C129.742 94.3959 129.789 95.2178 129.742 96.0223C129.704 96.659 128.623 96.5282 128.174 96.8872C127.111 97.7379 122.364 96.8908 121.336 96.698C115.115 95.5316 108.825 93.3473 102.768 91.6168C100.281 90.9063 98.6746 87.4032 97.6327 85.3193"  strokeWidth="3" strokeLinecap="round"/>
<path d="M54.8208 86.7788C53.324 86.7788 51.9478 85.4585 50.5504 84.9409C49.0876 84.3992 47.6409 83.9711 46.1719 83.4814C43.5532 82.6085 40.2137 81.9138 37.55 81.9138C31.908 81.9138 33.1329 94.0917 33.9283 97.671C34.432 99.9378 37.2537 100.887 39.2528 100.887C42.2146 100.887 45.2655 98.2186 47.1449 96.1304C48.3059 94.8404 50.4104 93.5797 50.9017 91.86C51.4044 90.1008 53.0619 89.3235 53.8478 87.7518"  strokeWidth="3" strokeLinecap="round"/>
<path d="M57.7397 104.779C50.3053 104.779 46.0638 114.456 46.0638 121.05C46.0638 122.478 44.3011 128.523 46.7935 129.077C52.4187 130.327 58.2188 130.168 63.848 131.294C66.6773 131.859 70.8752 132.701 70.8752 129.104C70.8752 125.464 68.5827 123.408 66.5508 120.672C62.8319 115.662 59.722 110.428 56.2802 105.266"  strokeWidth="3" strokeLinecap="round"/>
<path d="M82.0647 97.9684C82.0647 102.662 82.0647 107.356 82.0647 112.05C82.0647 114.248 82.0647 116.446 82.0647 118.645C82.0647 119.781 82.6548 123.258 81.9566 124.131C80.5943 125.834 81.7031 132.51 84.2539 132.51C88.1689 132.51 90.0053 129.178 93.2542 127.266C97.3627 124.85 100.492 120.395 104.2 117.428C107.397 114.871 107.733 111.772 105.795 108.671C104.84 107.143 102.682 105.223 101.038 104.401C98.8247 103.294 95.4692 101.771 93.065 101.401C91.2055 101.115 89.0222 100.401 87.1729 100.401C85.7172 100.401 84.4988 98.9414 83.0377 98.9414"  strokeWidth="3" strokeLinecap="round"/>
<path d="M51.4152 34.7234C51.4152 38.9678 50.9287 43.2679 50.9287 47.3724"  strokeWidth="3" strokeLinecap="round"/>
<path d="M64.0642 26.4529C64.0642 30.3256 65.5237 34.1299 65.5237 37.8856C65.5237 39.1972 66.8678 44.3957 67.9562 44.9399"  strokeWidth="3" strokeLinecap="round"/>
<path d="M51.1399 13.616C53.6218 12.302 55.9175 13.4988 58.5199 13.4988C61.7092 15.6251 64.2091 18.8368 67.4813 20.7617C69.8557 22.1584 72.8079 24.5174 74.5391 26.6481C77.3593 30.119 82.5157 32.9183 86.0483 35.463C91.3776 39.3019 99.9331 49.9432 93.3112 56.1972C90.1834 59.1513 85.4426 61.0958 81.7141 63.1672C79.4251 64.4388 77.1986 65.1116 74.8612 66.0958C67.2699 69.2921 58.9667 66.8865 51.257 64.5143C44.969 62.5796 38.4247 60.236 32.69 57.3686C30.4 56.2237 29 54.654 29 51.9801C29 47.3182 29.468 42.324 30.9914 37.923C32.227 34.3536 32.7862 29.7463 35.4428 26.7945C38.0627 23.8836 40.6245 21.3786 43.4085 18.5945C45.8799 16.1231 48.0996 15.2256 51.1399 13.616Z"  strokeWidth="3" strokeLinecap="round"/>
</svg>
